<?xml version="1.0" encoding="utf-8" standalone="no"?>
<!DOCTYPE svg PUBLIC "-//W3C//DTD SVG 1.1//EN"
  "http://www.w3.org/Graphics/SVG/1.1/DTD/svg11.dtd">
<svg xmlns:xlink="http://www.w3.org/1999/xlink" width="460.8pt" height="345.6pt" viewBox="0 0 460.8 345.6" xmlns="http://www.w3.org/2000/svg" version="1.1">
 <metadata>
  <rdf:RDF xmlns:dc="http://purl.org/dc/elements/1.1/" xmlns:cc="http://creativecommons.org/ns#" xmlns:rdf="http://www.w3.org/1999/02/22-rdf-syntax-ns#">
   <cc:Work>
    <dc:type rdf:resource="http://purl.org/dc/dcmitype/StillImage"/>
    <dc:date>2023-03-22T22:11:15.747453</dc:date>
    <dc:format>image/svg+xml</dc:format>
    <dc:creator>
     <cc:Agent>
      <dc:title>Matplotlib v3.6.3, https://matplotlib.org/</dc:title>
     </cc:Agent>
    </dc:creator>
   </cc:Work>
  </rdf:RDF>
 </metadata>
 <defs>
  <style type="text/css">*{stroke-linejoin: round; stroke-linecap: butt}</style>
 </defs>
 <g id="figure_1">
  <g id="patch_1">
   <path d="M 0 345.6 
L 460.8 345.6 
L 460.8 0 
L 0 0 
z
" style="fill: #ffffff"/>
  </g>
  <g id="axes_1">
   <g id="patch_2">
    <path d="M 57.6 307.584 
L 414.72 307.584 
L 414.72 41.472 
L 57.6 41.472 
z
" style="fill: #ffffff"/>
   </g>
   <g id="matplotlib.axis_1">
    <g id="xtick_1">
     <g id="line2d_1">
      <defs>
       <path id="mfc63906b4c" d="M 0 0 
L 0 3.5 
" style="stroke: #000000; stroke-width: 0.8"/>
      </defs>
      <g>
       <use xlink:href="#mfc63906b4c" x="73.832727" y="307.584" style="stroke: #000000; stroke-width: 0.8"/>
      </g>
     </g>
     <g id="text_1">
      <!-- 0 -->
      <g transform="translate(70.651477 322.182437) scale(0.1 -0.1)">
       <defs>
        <path id="DejaVuSans-30" d="M 2034 4250 
Q 1547 4250 1301 3770 
Q 1056 3291 1056 2328 
Q 1056 1369 1301 889 
Q 1547 409 2034 409 
Q 2525 409 2770 889 
Q 3016 1369 3016 2328 
Q 3016 3291 2770 3770 
Q 2525 4250 2034 4250 
z
M 2034 4750 
Q 2819 4750 3233 4129 
Q 3647 3509 3647 2328 
Q 3647 1150 3233 529 
Q 2819 -91 2034 -91 
Q 1250 -91 836 529 
Q 422 1150 422 2328 
Q 422 3509 836 4129 
Q 1250 4750 2034 4750 
z
" transform="scale(0.015625)"/>
       </defs>
       <use xlink:href="#DejaVuSans-30"/>
      </g>
     </g>
    </g>
    <g id="xtick_2">
     <g id="line2d_2">
      <g>
       <use xlink:href="#mfc63906b4c" x="128.396516" y="307.584" style="stroke: #000000; stroke-width: 0.8"/>
      </g>
     </g>
     <g id="text_2">
      <!-- 20 -->
      <g transform="translate(122.034016 322.182437) scale(0.1 -0.1)">
       <defs>
        <path id="DejaVuSans-32" d="M 1228 531 
L 3431 531 
L 3431 0 
L 469 0 
L 469 531 
Q 828 903 1448 1529 
Q 2069 2156 2228 2338 
Q 2531 2678 2651 2914 
Q 2772 3150 2772 3378 
Q 2772 3750 2511 3984 
Q 2250 4219 1831 4219 
Q 1534 4219 1204 4116 
Q 875 4013 500 3803 
L 500 4441 
Q 881 4594 1212 4672 
Q 1544 4750 1819 4750 
Q 2544 4750 2975 4387 
Q 3406 4025 3406 3419 
Q 3406 3131 3298 2873 
Q 3191 2616 2906 2266 
Q 2828 2175 2409 1742 
Q 1991 1309 1228 531 
z
" transform="scale(0.015625)"/>
       </defs>
       <use xlink:href="#DejaVuSans-32"/>
       <use xlink:href="#DejaVuSans-30" x="63.623047"/>
      </g>
     </g>
    </g>
    <g id="xtick_3">
     <g id="line2d_3">
      <g>
       <use xlink:href="#mfc63906b4c" x="182.960306" y="307.584" style="stroke: #000000; stroke-width: 0.8"/>
      </g>
     </g>
     <g id="text_3">
      <!-- 40 -->
      <g transform="translate(176.597806 322.182437) scale(0.1 -0.1)">
       <defs>
        <path id="DejaVuSans-34" d="M 2419 4116 
L 825 1625 
L 2419 1625 
L 2419 4116 
z
M 2253 4666 
L 3047 4666 
L 3047 1625 
L 3713 1625 
L 3713 1100 
L 3047 1100 
L 3047 0 
L 2419 0 
L 2419 1100 
L 313 1100 
L 313 1709 
L 2253 4666 
z
" transform="scale(0.015625)"/>
       </defs>
       <use xlink:href="#DejaVuSans-34"/>
       <use xlink:href="#DejaVuSans-30" x="63.623047"/>
      </g>
     </g>
    </g>
    <g id="xtick_4">
     <g id="line2d_4">
      <g>
       <use xlink:href="#mfc63906b4c" x="237.524095" y="307.584" style="stroke: #000000; stroke-width: 0.8"/>
      </g>
     </g>
     <g id="text_4">
      <!-- 60 -->
      <g transform="translate(231.161595 322.182437) scale(0.1 -0.1)">
       <defs>
        <path id="DejaVuSans-36" d="M 2113 2584 
Q 1688 2584 1439 2293 
Q 1191 2003 1191 1497 
Q 1191 994 1439 701 
Q 1688 409 2113 409 
Q 2538 409 2786 701 
Q 3034 994 3034 1497 
Q 3034 2003 2786 2293 
Q 2538 2584 2113 2584 
z
M 3366 4563 
L 3366 3988 
Q 3128 4100 2886 4159 
Q 2644 4219 2406 4219 
Q 1781 4219 1451 3797 
Q 1122 3375 1075 2522 
Q 1259 2794 1537 2939 
Q 1816 3084 2150 3084 
Q 2853 3084 3261 2657 
Q 3669 2231 3669 1497 
Q 3669 778 3244 343 
Q 2819 -91 2113 -91 
Q 1303 -91 875 529 
Q 447 1150 447 2328 
Q 447 3434 972 4092 
Q 1497 4750 2381 4750 
Q 2619 4750 2861 4703 
Q 3103 4656 3366 4563 
z
" transform="scale(0.015625)"/>
       </defs>
       <use xlink:href="#DejaVuSans-36"/>
       <use xlink:href="#DejaVuSans-30" x="63.623047"/>
      </g>
     </g>
    </g>
    <g id="xtick_5">
     <g id="line2d_5">
      <g>
       <use xlink:href="#mfc63906b4c" x="292.087884" y="307.584" style="stroke: #000000; stroke-width: 0.8"/>
      </g>
     </g>
     <g id="text_5">
      <!-- 80 -->
      <g transform="translate(285.725384 322.182437) scale(0.1 -0.1)">
       <defs>
        <path id="DejaVuSans-38" d="M 2034 2216 
Q 1584 2216 1326 1975 
Q 1069 1734 1069 1313 
Q 1069 891 1326 650 
Q 1584 409 2034 409 
Q 2484 409 2743 651 
Q 3003 894 3003 1313 
Q 3003 1734 2745 1975 
Q 2488 2216 2034 2216 
z
M 1403 2484 
Q 997 2584 770 2862 
Q 544 3141 544 3541 
Q 544 4100 942 4425 
Q 1341 4750 2034 4750 
Q 2731 4750 3128 4425 
Q 3525 4100 3525 3541 
Q 3525 3141 3298 2862 
Q 3072 2584 2669 2484 
Q 3125 2378 3379 2068 
Q 3634 1759 3634 1313 
Q 3634 634 3220 271 
Q 2806 -91 2034 -91 
Q 1263 -91 848 271 
Q 434 634 434 1313 
Q 434 1759 690 2068 
Q 947 2378 1403 2484 
z
M 1172 3481 
Q 1172 3119 1398 2916 
Q 1625 2713 2034 2713 
Q 2441 2713 2670 2916 
Q 2900 3119 2900 3481 
Q 2900 3844 2670 4047 
Q 2441 4250 2034 4250 
Q 1625 4250 1398 4047 
Q 1172 3844 1172 3481 
z
" transform="scale(0.015625)"/>
       </defs>
       <use xlink:href="#DejaVuSans-38"/>
       <use xlink:href="#DejaVuSans-30" x="63.623047"/>
      </g>
     </g>
    </g>
    <g id="xtick_6">
     <g id="line2d_6">
      <g>
       <use xlink:href="#mfc63906b4c" x="346.651673" y="307.584" style="stroke: #000000; stroke-width: 0.8"/>
      </g>
     </g>
     <g id="text_6">
      <!-- 100 -->
      <g transform="translate(337.107923 322.182437) scale(0.1 -0.1)">
       <defs>
        <path id="DejaVuSans-31" d="M 794 531 
L 1825 531 
L 1825 4091 
L 703 3866 
L 703 4441 
L 1819 4666 
L 2450 4666 
L 2450 531 
L 3481 531 
L 3481 0 
L 794 0 
L 794 531 
z
" transform="scale(0.015625)"/>
       </defs>
       <use xlink:href="#DejaVuSans-31"/>
       <use xlink:href="#DejaVuSans-30" x="63.623047"/>
       <use xlink:href="#DejaVuSans-30" x="127.246094"/>
      </g>
     </g>
    </g>
    <g id="xtick_7">
     <g id="line2d_7">
      <g>
       <use xlink:href="#mfc63906b4c" x="401.215462" y="307.584" style="stroke: #000000; stroke-width: 0.8"/>
      </g>
     </g>
     <g id="text_7">
      <!-- 120 -->
      <g transform="translate(391.671712 322.182437) scale(0.1 -0.1)">
       <use xlink:href="#DejaVuSans-31"/>
       <use xlink:href="#DejaVuSans-32" x="63.623047"/>
       <use xlink:href="#DejaVuSans-30" x="127.246094"/>
      </g>
     </g>
    </g>
    <g id="text_8">
     <!-- Month -->
     <g transform="translate(220.488906 335.860562) scale(0.1 -0.1)">
      <defs>
       <path id="DejaVuSans-4d" d="M 628 4666 
L 1569 4666 
L 2759 1491 
L 3956 4666 
L 4897 4666 
L 4897 0 
L 4281 0 
L 4281 4097 
L 3078 897 
L 2444 897 
L 1241 4097 
L 1241 0 
L 628 0 
L 628 4666 
z
" transform="scale(0.015625)"/>
       <path id="DejaVuSans-6f" d="M 1959 3097 
Q 1497 3097 1228 2736 
Q 959 2375 959 1747 
Q 959 1119 1226 758 
Q 1494 397 1959 397 
Q 2419 397 2687 759 
Q 2956 1122 2956 1747 
Q 2956 2369 2687 2733 
Q 2419 3097 1959 3097 
z
M 1959 3584 
Q 2709 3584 3137 3096 
Q 3566 2609 3566 1747 
Q 3566 888 3137 398 
Q 2709 -91 1959 -91 
Q 1206 -91 779 398 
Q 353 888 353 1747 
Q 353 2609 779 3096 
Q 1206 3584 1959 3584 
z
" transform="scale(0.015625)"/>
       <path id="DejaVuSans-6e" d="M 3513 2113 
L 3513 0 
L 2938 0 
L 2938 2094 
Q 2938 2591 2744 2837 
Q 2550 3084 2163 3084 
Q 1697 3084 1428 2787 
Q 1159 2491 1159 1978 
L 1159 0 
L 581 0 
L 581 3500 
L 1159 3500 
L 1159 2956 
Q 1366 3272 1645 3428 
Q 1925 3584 2291 3584 
Q 2894 3584 3203 3211 
Q 3513 2838 3513 2113 
z
" transform="scale(0.015625)"/>
       <path id="DejaVuSans-74" d="M 1172 4494 
L 1172 3500 
L 2356 3500 
L 2356 3053 
L 1172 3053 
L 1172 1153 
Q 1172 725 1289 603 
Q 1406 481 1766 481 
L 2356 481 
L 2356 0 
L 1766 0 
Q 1100 0 847 248 
Q 594 497 594 1153 
L 594 3053 
L 172 3053 
L 172 3500 
L 594 3500 
L 594 4494 
L 1172 4494 
z
" transform="scale(0.015625)"/>
       <path id="DejaVuSans-68" d="M 3513 2113 
L 3513 0 
L 2938 0 
L 2938 2094 
Q 2938 2591 2744 2837 
Q 2550 3084 2163 3084 
Q 1697 3084 1428 2787 
Q 1159 2491 1159 1978 
L 1159 0 
L 581 0 
L 581 4863 
L 1159 4863 
L 1159 2956 
Q 1366 3272 1645 3428 
Q 1925 3584 2291 3584 
Q 2894 3584 3203 3211 
Q 3513 2838 3513 2113 
z
" transform="scale(0.015625)"/>
      </defs>
      <use xlink:href="#DejaVuSans-4d"/>
      <use xlink:href="#DejaVuSans-6f" x="86.279297"/>
      <use xlink:href="#DejaVuSans-6e" x="147.460938"/>
      <use xlink:href="#DejaVuSans-74" x="210.839844"/>
      <use xlink:href="#DejaVuSans-68" x="250.048828"/>
     </g>
    </g>
   </g>
   <g id="matplotlib.axis_2">
    <g id="ytick_1">
     <g id="line2d_8">
      <defs>
       <path id="m8d75228ddc" d="M 0 0 
L -3.5 0 
" style="stroke: #000000; stroke-width: 0.8"/>
      </defs>
      <g>
       <use xlink:href="#m8d75228ddc" x="57.6" y="307.546849" style="stroke: #000000; stroke-width: 0.8"/>
      </g>
     </g>
     <g id="text_9">
      <!-- 26 -->
      <g transform="translate(37.875 311.346068) scale(0.1 -0.1)">
       <use xlink:href="#DejaVuSans-32"/>
       <use xlink:href="#DejaVuSans-36" x="63.623047"/>
      </g>
     </g>
    </g>
    <g id="ytick_2">
     <g id="line2d_9">
      <g>
       <use xlink:href="#m8d75228ddc" x="57.6" y="254.560997" style="stroke: #000000; stroke-width: 0.8"/>
      </g>
     </g>
     <g id="text_10">
      <!-- 28 -->
      <g transform="translate(37.875 258.360216) scale(0.1 -0.1)">
       <use xlink:href="#DejaVuSans-32"/>
       <use xlink:href="#DejaVuSans-38" x="63.623047"/>
      </g>
     </g>
    </g>
    <g id="ytick_3">
     <g id="line2d_10">
      <g>
       <use xlink:href="#m8d75228ddc" x="57.6" y="201.575146" style="stroke: #000000; stroke-width: 0.8"/>
      </g>
     </g>
     <g id="text_11">
      <!-- 30 -->
      <g transform="translate(37.875 205.374364) scale(0.1 -0.1)">
       <defs>
        <path id="DejaVuSans-33" d="M 2597 2516 
Q 3050 2419 3304 2112 
Q 3559 1806 3559 1356 
Q 3559 666 3084 287 
Q 2609 -91 1734 -91 
Q 1441 -91 1130 -33 
Q 819 25 488 141 
L 488 750 
Q 750 597 1062 519 
Q 1375 441 1716 441 
Q 2309 441 2620 675 
Q 2931 909 2931 1356 
Q 2931 1769 2642 2001 
Q 2353 2234 1838 2234 
L 1294 2234 
L 1294 2753 
L 1863 2753 
Q 2328 2753 2575 2939 
Q 2822 3125 2822 3475 
Q 2822 3834 2567 4026 
Q 2313 4219 1838 4219 
Q 1578 4219 1281 4162 
Q 984 4106 628 3988 
L 628 4550 
Q 988 4650 1302 4700 
Q 1616 4750 1894 4750 
Q 2613 4750 3031 4423 
Q 3450 4097 3450 3541 
Q 3450 3153 3228 2886 
Q 3006 2619 2597 2516 
z
" transform="scale(0.015625)"/>
       </defs>
       <use xlink:href="#DejaVuSans-33"/>
       <use xlink:href="#DejaVuSans-30" x="63.623047"/>
      </g>
     </g>
    </g>
    <g id="ytick_4">
     <g id="line2d_11">
      <g>
       <use xlink:href="#m8d75228ddc" x="57.6" y="148.589294" style="stroke: #000000; stroke-width: 0.8"/>
      </g>
     </g>
     <g id="text_12">
      <!-- 32 -->
      <g transform="translate(37.875 152.388513) scale(0.1 -0.1)">
       <use xlink:href="#DejaVuSans-33"/>
       <use xlink:href="#DejaVuSans-32" x="63.623047"/>
      </g>
     </g>
    </g>
    <g id="ytick_5">
     <g id="line2d_12">
      <g>
       <use xlink:href="#m8d75228ddc" x="57.6" y="95.603442" style="stroke: #000000; stroke-width: 0.8"/>
      </g>
     </g>
     <g id="text_13">
      <!-- 34 -->
      <g transform="translate(37.875 99.402661) scale(0.1 -0.1)">
       <use xlink:href="#DejaVuSans-33"/>
       <use xlink:href="#DejaVuSans-34" x="63.623047"/>
      </g>
     </g>
    </g>
    <g id="ytick_6">
     <g id="line2d_13">
      <g>
       <use xlink:href="#m8d75228ddc" x="57.6" y="42.617591" style="stroke: #000000; stroke-width: 0.8"/>
      </g>
     </g>
     <g id="text_14">
      <!-- 36 -->
      <g transform="translate(37.875 46.416809) scale(0.1 -0.1)">
       <use xlink:href="#DejaVuSans-33"/>
       <use xlink:href="#DejaVuSans-36" x="63.623047"/>
      </g>
     </g>
    </g>
    <g id="text_15">
     <!-- Mean monthly maximum temperature (degC) -->
     <g transform="translate(31.795312 288.519406) rotate(-90) scale(0.1 -0.1)">
      <defs>
       <path id="DejaVuSans-65" d="M 3597 1894 
L 3597 1613 
L 953 1613 
Q 991 1019 1311 708 
Q 1631 397 2203 397 
Q 2534 397 2845 478 
Q 3156 559 3463 722 
L 3463 178 
Q 3153 47 2828 -22 
Q 2503 -91 2169 -91 
Q 1331 -91 842 396 
Q 353 884 353 1716 
Q 353 2575 817 3079 
Q 1281 3584 2069 3584 
Q 2775 3584 3186 3129 
Q 3597 2675 3597 1894 
z
M 3022 2063 
Q 3016 2534 2758 2815 
Q 2500 3097 2075 3097 
Q 1594 3097 1305 2825 
Q 1016 2553 972 2059 
L 3022 2063 
z
" transform="scale(0.015625)"/>
       <path id="DejaVuSans-61" d="M 2194 1759 
Q 1497 1759 1228 1600 
Q 959 1441 959 1056 
Q 959 750 1161 570 
Q 1363 391 1709 391 
Q 2188 391 2477 730 
Q 2766 1069 2766 1631 
L 2766 1759 
L 2194 1759 
z
M 3341 1997 
L 3341 0 
L 2766 0 
L 2766 531 
Q 2569 213 2275 61 
Q 1981 -91 1556 -91 
Q 1019 -91 701 211 
Q 384 513 384 1019 
Q 384 1609 779 1909 
Q 1175 2209 1959 2209 
L 2766 2209 
L 2766 2266 
Q 2766 2663 2505 2880 
Q 2244 3097 1772 3097 
Q 1472 3097 1187 3025 
Q 903 2953 641 2809 
L 641 3341 
Q 956 3463 1253 3523 
Q 1550 3584 1831 3584 
Q 2591 3584 2966 3190 
Q 3341 2797 3341 1997 
z
" transform="scale(0.015625)"/>
       <path id="DejaVuSans-20" transform="scale(0.015625)"/>
       <path id="DejaVuSans-6d" d="M 3328 2828 
Q 3544 3216 3844 3400 
Q 4144 3584 4550 3584 
Q 5097 3584 5394 3201 
Q 5691 2819 5691 2113 
L 5691 0 
L 5113 0 
L 5113 2094 
Q 5113 2597 4934 2840 
Q 4756 3084 4391 3084 
Q 3944 3084 3684 2787 
Q 3425 2491 3425 1978 
L 3425 0 
L 2847 0 
L 2847 2094 
Q 2847 2600 2669 2842 
Q 2491 3084 2119 3084 
Q 1678 3084 1418 2786 
Q 1159 2488 1159 1978 
L 1159 0 
L 581 0 
L 581 3500 
L 1159 3500 
L 1159 2956 
Q 1356 3278 1631 3431 
Q 1906 3584 2284 3584 
Q 2666 3584 2933 3390 
Q 3200 3197 3328 2828 
z
" transform="scale(0.015625)"/>
       <path id="DejaVuSans-6c" d="M 603 4863 
L 1178 4863 
L 1178 0 
L 603 0 
L 603 4863 
z
" transform="scale(0.015625)"/>
       <path id="DejaVuSans-79" d="M 2059 -325 
Q 1816 -950 1584 -1140 
Q 1353 -1331 966 -1331 
L 506 -1331 
L 506 -850 
L 844 -850 
Q 1081 -850 1212 -737 
Q 1344 -625 1503 -206 
L 1606 56 
L 191 3500 
L 800 3500 
L 1894 763 
L 2988 3500 
L 3597 3500 
L 2059 -325 
z
" transform="scale(0.015625)"/>
       <path id="DejaVuSans-78" d="M 3513 3500 
L 2247 1797 
L 3578 0 
L 2900 0 
L 1881 1375 
L 863 0 
L 184 0 
L 1544 1831 
L 300 3500 
L 978 3500 
L 1906 2253 
L 2834 3500 
L 3513 3500 
z
" transform="scale(0.015625)"/>
       <path id="DejaVuSans-69" d="M 603 3500 
L 1178 3500 
L 1178 0 
L 603 0 
L 603 3500 
z
M 603 4863 
L 1178 4863 
L 1178 4134 
L 603 4134 
L 603 4863 
z
" transform="scale(0.015625)"/>
       <path id="DejaVuSans-75" d="M 544 1381 
L 544 3500 
L 1119 3500 
L 1119 1403 
Q 1119 906 1312 657 
Q 1506 409 1894 409 
Q 2359 409 2629 706 
Q 2900 1003 2900 1516 
L 2900 3500 
L 3475 3500 
L 3475 0 
L 2900 0 
L 2900 538 
Q 2691 219 2414 64 
Q 2138 -91 1772 -91 
Q 1169 -91 856 284 
Q 544 659 544 1381 
z
M 1991 3584 
L 1991 3584 
z
" transform="scale(0.015625)"/>
       <path id="DejaVuSans-70" d="M 1159 525 
L 1159 -1331 
L 581 -1331 
L 581 3500 
L 1159 3500 
L 1159 2969 
Q 1341 3281 1617 3432 
Q 1894 3584 2278 3584 
Q 2916 3584 3314 3078 
Q 3713 2572 3713 1747 
Q 3713 922 3314 415 
Q 2916 -91 2278 -91 
Q 1894 -91 1617 61 
Q 1341 213 1159 525 
z
M 3116 1747 
Q 3116 2381 2855 2742 
Q 2594 3103 2138 3103 
Q 1681 3103 1420 2742 
Q 1159 2381 1159 1747 
Q 1159 1113 1420 752 
Q 1681 391 2138 391 
Q 2594 391 2855 752 
Q 3116 1113 3116 1747 
z
" transform="scale(0.015625)"/>
       <path id="DejaVuSans-72" d="M 2631 2963 
Q 2534 3019 2420 3045 
Q 2306 3072 2169 3072 
Q 1681 3072 1420 2755 
Q 1159 2438 1159 1844 
L 1159 0 
L 581 0 
L 581 3500 
L 1159 3500 
L 1159 2956 
Q 1341 3275 1631 3429 
Q 1922 3584 2338 3584 
Q 2397 3584 2469 3576 
Q 2541 3569 2628 3553 
L 2631 2963 
z
" transform="scale(0.015625)"/>
       <path id="DejaVuSans-28" d="M 1984 4856 
Q 1566 4138 1362 3434 
Q 1159 2731 1159 2009 
Q 1159 1288 1364 580 
Q 1569 -128 1984 -844 
L 1484 -844 
Q 1016 -109 783 600 
Q 550 1309 550 2009 
Q 550 2706 781 3412 
Q 1013 4119 1484 4856 
L 1984 4856 
z
" transform="scale(0.015625)"/>
       <path id="DejaVuSans-64" d="M 2906 2969 
L 2906 4863 
L 3481 4863 
L 3481 0 
L 2906 0 
L 2906 525 
Q 2725 213 2448 61 
Q 2172 -91 1784 -91 
Q 1150 -91 751 415 
Q 353 922 353 1747 
Q 353 2572 751 3078 
Q 1150 3584 1784 3584 
Q 2172 3584 2448 3432 
Q 2725 3281 2906 2969 
z
M 947 1747 
Q 947 1113 1208 752 
Q 1469 391 1925 391 
Q 2381 391 2643 752 
Q 2906 1113 2906 1747 
Q 2906 2381 2643 2742 
Q 2381 3103 1925 3103 
Q 1469 3103 1208 2742 
Q 947 2381 947 1747 
z
" transform="scale(0.015625)"/>
       <path id="DejaVuSans-67" d="M 2906 1791 
Q 2906 2416 2648 2759 
Q 2391 3103 1925 3103 
Q 1463 3103 1205 2759 
Q 947 2416 947 1791 
Q 947 1169 1205 825 
Q 1463 481 1925 481 
Q 2391 481 2648 825 
Q 2906 1169 2906 1791 
z
M 3481 434 
Q 3481 -459 3084 -895 
Q 2688 -1331 1869 -1331 
Q 1566 -1331 1297 -1286 
Q 1028 -1241 775 -1147 
L 775 -588 
Q 1028 -725 1275 -790 
Q 1522 -856 1778 -856 
Q 2344 -856 2625 -561 
Q 2906 -266 2906 331 
L 2906 616 
Q 2728 306 2450 153 
Q 2172 0 1784 0 
Q 1141 0 747 490 
Q 353 981 353 1791 
Q 353 2603 747 3093 
Q 1141 3584 1784 3584 
Q 2172 3584 2450 3431 
Q 2728 3278 2906 2969 
L 2906 3500 
L 3481 3500 
L 3481 434 
z
" transform="scale(0.015625)"/>
       <path id="DejaVuSans-43" d="M 4122 4306 
L 4122 3641 
Q 3803 3938 3442 4084 
Q 3081 4231 2675 4231 
Q 1875 4231 1450 3742 
Q 1025 3253 1025 2328 
Q 1025 1406 1450 917 
Q 1875 428 2675 428 
Q 3081 428 3442 575 
Q 3803 722 4122 1019 
L 4122 359 
Q 3791 134 3420 21 
Q 3050 -91 2638 -91 
Q 1578 -91 968 557 
Q 359 1206 359 2328 
Q 359 3453 968 4101 
Q 1578 4750 2638 4750 
Q 3056 4750 3426 4639 
Q 3797 4528 4122 4306 
z
" transform="scale(0.015625)"/>
       <path id="DejaVuSans-29" d="M 513 4856 
L 1013 4856 
Q 1481 4119 1714 3412 
Q 1947 2706 1947 2009 
Q 1947 1309 1714 600 
Q 1481 -109 1013 -844 
L 513 -844 
Q 928 -128 1133 580 
Q 1338 1288 1338 2009 
Q 1338 2731 1133 3434 
Q 928 4138 513 4856 
z
" transform="scale(0.015625)"/>
      </defs>
      <use xlink:href="#DejaVuSans-4d"/>
      <use xlink:href="#DejaVuSans-65" x="86.279297"/>
      <use xlink:href="#DejaVuSans-61" x="147.802734"/>
      <use xlink:href="#DejaVuSans-6e" x="209.082031"/>
      <use xlink:href="#DejaVuSans-20" x="272.460938"/>
      <use xlink:href="#DejaVuSans-6d" x="304.248047"/>
      <use xlink:href="#DejaVuSans-6f" x="401.660156"/>
      <use xlink:href="#DejaVuSans-6e" x="462.841797"/>
      <use xlink:href="#DejaVuSans-74" x="526.220703"/>
      <use xlink:href="#DejaVuSans-68" x="565.429688"/>
      <use xlink:href="#DejaVuSans-6c" x="628.808594"/>
      <use xlink:href="#DejaVuSans-79" x="656.591797"/>
      <use xlink:href="#DejaVuSans-20" x="715.771484"/>
      <use xlink:href="#DejaVuSans-6d" x="747.558594"/>
      <use xlink:href="#DejaVuSans-61" x="844.970703"/>
      <use xlink:href="#DejaVuSans-78" x="906.25"/>
      <use xlink:href="#DejaVuSans-69" x="965.429688"/>
      <use xlink:href="#DejaVuSans-6d" x="993.212891"/>
      <use xlink:href="#DejaVuSans-75" x="1090.625"/>
      <use xlink:href="#DejaVuSans-6d" x="1154.003906"/>
      <use xlink:href="#DejaVuSans-20" x="1251.416016"/>
      <use xlink:href="#DejaVuSans-74" x="1283.203125"/>
      <use xlink:href="#DejaVuSans-65" x="1322.412109"/>
      <use xlink:href="#DejaVuSans-6d" x="1383.935547"/>
      <use xlink:href="#DejaVuSans-70" x="1481.347656"/>
      <use xlink:href="#DejaVuSans-65" x="1544.824219"/>
      <use xlink:href="#DejaVuSans-72" x="1606.347656"/>
      <use xlink:href="#DejaVuSans-61" x="1647.460938"/>
      <use xlink:href="#DejaVuSans-74" x="1708.740234"/>
      <use xlink:href="#DejaVuSans-75" x="1747.949219"/>
      <use xlink:href="#DejaVuSans-72" x="1811.328125"/>
      <use xlink:href="#DejaVuSans-65" x="1850.191406"/>
      <use xlink:href="#DejaVuSans-20" x="1911.714844"/>
      <use xlink:href="#DejaVuSans-28" x="1943.501953"/>
      <use xlink:href="#DejaVuSans-64" x="1982.515625"/>
      <use xlink:href="#DejaVuSans-65" x="2045.992188"/>
      <use xlink:href="#DejaVuSans-67" x="2107.515625"/>
      <use xlink:href="#DejaVuSans-43" x="2170.992188"/>
      <use xlink:href="#DejaVuSans-29" x="2240.816406"/>
     </g>
    </g>
   </g>
   <g id="line2d_14">
    <path d="M 73.832727 213.202596 
L 76.560917 164.179362 
L 79.289106 122.184678 
L 82.017296 118.716236 
L 84.745485 74.674031 
L 87.473675 157.508579 
L 90.201864 120.866339 
L 92.930053 75.02727 
L 95.658243 110.585649 
L 98.386432 186.032629 
L 101.114622 222.221357 
L 103.842811 235.132852 
L 106.571001 174.658333 
L 109.29919 167.134342 
L 112.02738 112.205676 
L 114.755569 57.143022 
L 117.483759 84.123174 
L 120.211948 104.434418 
L 122.940138 69.79737 
L 125.668327 105.935683 
L 128.396516 88.751824 
L 131.124706 211.465838 
L 133.852895 295.488 
L 136.581085 225.229544 
L 139.309274 223.917513 
L 142.037464 145.757292 
L 144.765653 171.2849 
L 147.493843 112.960876 
L 150.222032 79.177828 
L 152.950222 162.453925 
L 155.678411 166.643732 
L 158.4066 103.374701 
L 161.13479 98.800864 
L 163.862979 169.960254 
L 166.591169 221.673227 
L 169.319358 234.691303 
L 172.047548 197.738239 
L 174.775737 161.561692 
L 177.503927 154.064499 
L 180.232116 87.750182 
L 182.960306 105.494135 
L 185.688495 103.816249 
L 188.416684 151.92544 
L 191.144874 118.475668 
L 193.873063 128.491212 
L 196.601253 199.279092 
L 199.329442 244.055182 
L 202.057632 276.285197 
L 204.785821 184.354744 
L 207.514011 184.765841 
L 210.2422 156.713791 
L 212.97039 95.146668 
L 215.698579 101.431886 
L 218.426769 85.006272 
L 221.154958 83.303155 
L 223.883147 91.982742 
L 226.611337 102.455061 
L 229.339526 167.046032 
L 232.067716 239.670146 
L 234.795905 251.911705 
L 237.524095 179.586017 
L 240.252284 147.58439 
L 242.980474 83.946555 
L 245.708663 59.609605 
L 248.436853 118.122429 
L 251.165042 78.118111 
L 253.893231 106.691222 
L 256.621421 134.283114 
L 259.34961 58.604701 
L 262.0778 149.91394 
L 264.805989 220.576968 
L 267.534179 253.854519 
L 270.262368 142.584231 
L 272.990558 145.117807 
L 275.718747 74.762341 
L 278.446937 75.322651 
L 281.175126 102.226674 
L 283.903316 118.828907 
L 286.631505 133.674758 
L 289.359694 53.568 
L 292.087884 95.055313 
L 294.816073 146.488131 
L 297.544263 257.941129 
L 300.272452 202.988102 
L 303.000642 152.739852 
L 305.728831 137.352639 
L 308.457021 69.375446 
L 311.18521 152.243491 
L 313.9134 108.94126 
L 316.641589 78.383041 
L 319.369778 143.977562 
L 322.097968 148.059435 
L 324.826157 104.09945 
L 327.554347 132.605229 
L 330.282536 175.173575 
L 333.010726 176.053627 
L 335.738915 192.83248 
L 338.467105 144.204258 
L 341.195294 151.061967 
L 343.923484 143.838838 
L 346.651673 89.42176 
L 349.379862 87.214016 
L 352.108052 132.315068 
L 354.836241 81.385572 
L 357.564431 142.651224 
L 360.29262 158.744916 
L 363.02081 221.216453 
L 365.748999 236.015949 
L 368.477189 165.809696 
L 371.205378 136.80451 
L 373.933568 113.795251 
L 376.661757 138.722963 
L 379.389947 96.839779 
L 382.118136 74.674031 
L 384.846325 148.294928 
L 387.574515 69.728685 
L 390.302704 85.006272 
L 393.030894 214.46837 
L 395.759083 275.389918 
L 398.487273 231.335532 
" clip-path="url(#p5921f4e85a)" style="fill: none; stroke: #1f77b4; stroke-width: 1.5; stroke-linecap: square"/>
   </g>
   <g id="patch_3">
    <path d="M 57.6 307.584 
L 57.6 41.472 
" style="fill: none; stroke: #000000; stroke-width: 0.8; stroke-linejoin: miter; stroke-linecap: square"/>
   </g>
   <g id="patch_4">
    <path d="M 414.72 307.584 
L 414.72 41.472 
" style="fill: none; stroke: #000000; stroke-width: 0.8; stroke-linejoin: miter; stroke-linecap: square"/>
   </g>
   <g id="patch_5">
    <path d="M 57.6 307.584 
L 414.72 307.584 
" style="fill: none; stroke: #000000; stroke-width: 0.8; stroke-linejoin: miter; stroke-linecap: square"/>
   </g>
   <g id="patch_6">
    <path d="M 57.6 41.472 
L 414.72 41.472 
" style="fill: none; stroke: #000000; stroke-width: 0.8; stroke-linejoin: miter; stroke-linecap: square"/>
   </g>
   <g id="text_16">
    <!-- Mean and normalised mean monthly maximum temperatures over 10 years -->
    <g transform="translate(7.742813 35.472) scale(0.12 -0.12)">
     <defs>
      <path id="DejaVuSans-73" d="M 2834 3397 
L 2834 2853 
Q 2591 2978 2328 3040 
Q 2066 3103 1784 3103 
Q 1356 3103 1142 2972 
Q 928 2841 928 2578 
Q 928 2378 1081 2264 
Q 1234 2150 1697 2047 
L 1894 2003 
Q 2506 1872 2764 1633 
Q 3022 1394 3022 966 
Q 3022 478 2636 193 
Q 2250 -91 1575 -91 
Q 1294 -91 989 -36 
Q 684 19 347 128 
L 347 722 
Q 666 556 975 473 
Q 1284 391 1588 391 
Q 1994 391 2212 530 
Q 2431 669 2431 922 
Q 2431 1156 2273 1281 
Q 2116 1406 1581 1522 
L 1381 1569 
Q 847 1681 609 1914 
Q 372 2147 372 2553 
Q 372 3047 722 3315 
Q 1072 3584 1716 3584 
Q 2034 3584 2315 3537 
Q 2597 3491 2834 3397 
z
" transform="scale(0.015625)"/>
      <path id="DejaVuSans-76" d="M 191 3500 
L 800 3500 
L 1894 563 
L 2988 3500 
L 3597 3500 
L 2284 0 
L 1503 0 
L 191 3500 
z
" transform="scale(0.015625)"/>
     </defs>
     <use xlink:href="#DejaVuSans-4d"/>
     <use xlink:href="#DejaVuSans-65" x="86.279297"/>
     <use xlink:href="#DejaVuSans-61" x="147.802734"/>
     <use xlink:href="#DejaVuSans-6e" x="209.082031"/>
     <use xlink:href="#DejaVuSans-20" x="272.460938"/>
     <use xlink:href="#DejaVuSans-61" x="304.248047"/>
     <use xlink:href="#DejaVuSans-6e" x="365.527344"/>
     <use xlink:href="#DejaVuSans-64" x="428.90625"/>
     <use xlink:href="#DejaVuSans-20" x="492.382812"/>
     <use xlink:href="#DejaVuSans-6e" x="524.169922"/>
     <use xlink:href="#DejaVuSans-6f" x="587.548828"/>
     <use xlink:href="#DejaVuSans-72" x="648.730469"/>
     <use xlink:href="#DejaVuSans-6d" x="688.09375"/>
     <use xlink:href="#DejaVuSans-61" x="785.505859"/>
     <use xlink:href="#DejaVuSans-6c" x="846.785156"/>
     <use xlink:href="#DejaVuSans-69" x="874.568359"/>
     <use xlink:href="#DejaVuSans-73" x="902.351562"/>
     <use xlink:href="#DejaVuSans-65" x="954.451172"/>
     <use xlink:href="#DejaVuSans-64" x="1015.974609"/>
     <use xlink:href="#DejaVuSans-20" x="1079.451172"/>
     <use xlink:href="#DejaVuSans-6d" x="1111.238281"/>
     <use xlink:href="#DejaVuSans-65" x="1208.650391"/>
     <use xlink:href="#DejaVuSans-61" x="1270.173828"/>
     <use xlink:href="#DejaVuSans-6e" x="1331.453125"/>
     <use xlink:href="#DejaVuSans-20" x="1394.832031"/>
     <use xlink:href="#DejaVuSans-6d" x="1426.619141"/>
     <use xlink:href="#DejaVuSans-6f" x="1524.03125"/>
     <use xlink:href="#DejaVuSans-6e" x="1585.212891"/>
     <use xlink:href="#DejaVuSans-74" x="1648.591797"/>
     <use xlink:href="#DejaVuSans-68" x="1687.800781"/>
     <use xlink:href="#DejaVuSans-6c" x="1751.179688"/>
     <use xlink:href="#DejaVuSans-79" x="1778.962891"/>
     <use xlink:href="#DejaVuSans-20" x="1838.142578"/>
     <use xlink:href="#DejaVuSans-6d" x="1869.929688"/>
     <use xlink:href="#DejaVuSans-61" x="1967.341797"/>
     <use xlink:href="#DejaVuSans-78" x="2028.621094"/>
     <use xlink:href="#DejaVuSans-69" x="2087.800781"/>
     <use xlink:href="#DejaVuSans-6d" x="2115.583984"/>
     <use xlink:href="#DejaVuSans-75" x="2212.996094"/>
     <use xlink:href="#DejaVuSans-6d" x="2276.375"/>
     <use xlink:href="#DejaVuSans-20" x="2373.787109"/>
     <use xlink:href="#DejaVuSans-74" x="2405.574219"/>
     <use xlink:href="#DejaVuSans-65" x="2444.783203"/>
     <use xlink:href="#DejaVuSans-6d" x="2506.306641"/>
     <use xlink:href="#DejaVuSans-70" x="2603.71875"/>
     <use xlink:href="#DejaVuSans-65" x="2667.195312"/>
     <use xlink:href="#DejaVuSans-72" x="2728.71875"/>
     <use xlink:href="#DejaVuSans-61" x="2769.832031"/>
     <use xlink:href="#DejaVuSans-74" x="2831.111328"/>
     <use xlink:href="#DejaVuSans-75" x="2870.320312"/>
     <use xlink:href="#DejaVuSans-72" x="2933.699219"/>
     <use xlink:href="#DejaVuSans-65" x="2972.5625"/>
     <use xlink:href="#DejaVuSans-73" x="3034.085938"/>
     <use xlink:href="#DejaVuSans-20" x="3086.185547"/>
     <use xlink:href="#DejaVuSans-6f" x="3117.972656"/>
     <use xlink:href="#DejaVuSans-76" x="3179.154297"/>
     <use xlink:href="#DejaVuSans-65" x="3238.333984"/>
     <use xlink:href="#DejaVuSans-72" x="3299.857422"/>
     <use xlink:href="#DejaVuSans-20" x="3340.970703"/>
     <use xlink:href="#DejaVuSans-31" x="3372.757812"/>
     <use xlink:href="#DejaVuSans-30" x="3436.380859"/>
     <use xlink:href="#DejaVuSans-20" x="3500.003906"/>
     <use xlink:href="#DejaVuSans-79" x="3531.791016"/>
     <use xlink:href="#DejaVuSans-65" x="3590.970703"/>
     <use xlink:href="#DejaVuSans-61" x="3652.494141"/>
     <use xlink:href="#DejaVuSans-72" x="3713.773438"/>
     <use xlink:href="#DejaVuSans-73" x="3754.886719"/>
    </g>
   </g>
  </g>
  <g id="axes_2">
   <g id="matplotlib.axis_3">
    <g id="ytick_7">
     <g id="line2d_15">
      <defs>
       <path id="md38ca0a077" d="M 0 0 
L 3.5 0 
" style="stroke: #000000; stroke-width: 0.8"/>
      </defs>
      <g>
       <use xlink:href="#md38ca0a077" x="414.72" y="288.777993" style="stroke: #000000; stroke-width: 0.8"/>
      </g>
     </g>
     <g id="text_17">
      <!-- −0.15 -->
      <g transform="translate(421.72 292.577212) scale(0.1 -0.1)">
       <defs>
        <path id="DejaVuSans-2212" d="M 678 2272 
L 4684 2272 
L 4684 1741 
L 678 1741 
L 678 2272 
z
" transform="scale(0.015625)"/>
        <path id="DejaVuSans-2e" d="M 684 794 
L 1344 794 
L 1344 0 
L 684 0 
L 684 794 
z
" transform="scale(0.015625)"/>
        <path id="DejaVuSans-35" d="M 691 4666 
L 3169 4666 
L 3169 4134 
L 1269 4134 
L 1269 2991 
Q 1406 3038 1543 3061 
Q 1681 3084 1819 3084 
Q 2600 3084 3056 2656 
Q 3513 2228 3513 1497 
Q 3513 744 3044 326 
Q 2575 -91 1722 -91 
Q 1428 -91 1123 -41 
Q 819 9 494 109 
L 494 744 
Q 775 591 1075 516 
Q 1375 441 1709 441 
Q 2250 441 2565 725 
Q 2881 1009 2881 1497 
Q 2881 1984 2565 2268 
Q 2250 2553 1709 2553 
Q 1456 2553 1204 2497 
Q 953 2441 691 2322 
L 691 4666 
z
" transform="scale(0.015625)"/>
       </defs>
       <use xlink:href="#DejaVuSans-2212"/>
       <use xlink:href="#DejaVuSans-30" x="83.789062"/>
       <use xlink:href="#DejaVuSans-2e" x="147.412109"/>
       <use xlink:href="#DejaVuSans-31" x="179.199219"/>
       <use xlink:href="#DejaVuSans-35" x="242.822266"/>
      </g>
     </g>
    </g>
    <g id="ytick_8">
     <g id="line2d_16">
      <g>
       <use xlink:href="#md38ca0a077" x="414.72" y="239.633616" style="stroke: #000000; stroke-width: 0.8"/>
      </g>
     </g>
     <g id="text_18">
      <!-- −0.10 -->
      <g transform="translate(421.72 243.432835) scale(0.1 -0.1)">
       <use xlink:href="#DejaVuSans-2212"/>
       <use xlink:href="#DejaVuSans-30" x="83.789062"/>
       <use xlink:href="#DejaVuSans-2e" x="147.412109"/>
       <use xlink:href="#DejaVuSans-31" x="179.199219"/>
       <use xlink:href="#DejaVuSans-30" x="242.822266"/>
      </g>
     </g>
    </g>
    <g id="ytick_9">
     <g id="line2d_17">
      <g>
       <use xlink:href="#md38ca0a077" x="414.72" y="190.489238" style="stroke: #000000; stroke-width: 0.8"/>
      </g>
     </g>
     <g id="text_19">
      <!-- −0.05 -->
      <g transform="translate(421.72 194.288457) scale(0.1 -0.1)">
       <use xlink:href="#DejaVuSans-2212"/>
       <use xlink:href="#DejaVuSans-30" x="83.789062"/>
       <use xlink:href="#DejaVuSans-2e" x="147.412109"/>
       <use xlink:href="#DejaVuSans-30" x="179.199219"/>
       <use xlink:href="#DejaVuSans-35" x="242.822266"/>
      </g>
     </g>
    </g>
    <g id="ytick_10">
     <g id="line2d_18">
      <g>
       <use xlink:href="#md38ca0a077" x="414.72" y="141.344861" style="stroke: #000000; stroke-width: 0.8"/>
      </g>
     </g>
     <g id="text_20">
      <!-- 0.00 -->
      <g transform="translate(421.72 145.14408) scale(0.1 -0.1)">
       <use xlink:href="#DejaVuSans-30"/>
       <use xlink:href="#DejaVuSans-2e" x="63.623047"/>
       <use xlink:href="#DejaVuSans-30" x="95.410156"/>
       <use xlink:href="#DejaVuSans-30" x="159.033203"/>
      </g>
     </g>
    </g>
    <g id="ytick_11">
     <g id="line2d_19">
      <g>
       <use xlink:href="#md38ca0a077" x="414.72" y="92.200484" style="stroke: #000000; stroke-width: 0.8"/>
      </g>
     </g>
     <g id="text_21">
      <!-- 0.05 -->
      <g transform="translate(421.72 95.999702) scale(0.1 -0.1)">
       <use xlink:href="#DejaVuSans-30"/>
       <use xlink:href="#DejaVuSans-2e" x="63.623047"/>
       <use xlink:href="#DejaVuSans-30" x="95.410156"/>
       <use xlink:href="#DejaVuSans-35" x="159.033203"/>
      </g>
     </g>
    </g>
    <g id="ytick_12">
     <g id="line2d_20">
      <g>
       <use xlink:href="#md38ca0a077" x="414.72" y="43.056106" style="stroke: #000000; stroke-width: 0.8"/>
      </g>
     </g>
     <g id="text_22">
      <!-- 0.10 -->
      <g transform="translate(421.72 46.855325) scale(0.1 -0.1)">
       <use xlink:href="#DejaVuSans-30"/>
       <use xlink:href="#DejaVuSans-2e" x="63.623047"/>
       <use xlink:href="#DejaVuSans-31" x="95.410156"/>
       <use xlink:href="#DejaVuSans-30" x="159.033203"/>
      </g>
     </g>
    </g>
    <g id="text_23">
     <!-- Normalised mean monthly maximum temperature -->
     <g transform="translate(463.96375 300.593625) rotate(-90) scale(0.1 -0.1)">
      <defs>
       <path id="DejaVuSans-4e" d="M 628 4666 
L 1478 4666 
L 3547 763 
L 3547 4666 
L 4159 4666 
L 4159 0 
L 3309 0 
L 1241 3903 
L 1241 0 
L 628 0 
L 628 4666 
z
" transform="scale(0.015625)"/>
      </defs>
      <use xlink:href="#DejaVuSans-4e"/>
      <use xlink:href="#DejaVuSans-6f" x="74.804688"/>
      <use xlink:href="#DejaVuSans-72" x="135.986328"/>
      <use xlink:href="#DejaVuSans-6d" x="175.349609"/>
      <use xlink:href="#DejaVuSans-61" x="272.761719"/>
      <use xlink:href="#DejaVuSans-6c" x="334.041016"/>
      <use xlink:href="#DejaVuSans-69" x="361.824219"/>
      <use xlink:href="#DejaVuSans-73" x="389.607422"/>
      <use xlink:href="#DejaVuSans-65" x="441.707031"/>
      <use xlink:href="#DejaVuSans-64" x="503.230469"/>
      <use xlink:href="#DejaVuSans-20" x="566.707031"/>
      <use xlink:href="#DejaVuSans-6d" x="598.494141"/>
      <use xlink:href="#DejaVuSans-65" x="695.90625"/>
      <use xlink:href="#DejaVuSans-61" x="757.429688"/>
      <use xlink:href="#DejaVuSans-6e" x="818.708984"/>
      <use xlink:href="#DejaVuSans-20" x="882.087891"/>
      <use xlink:href="#DejaVuSans-6d" x="913.875"/>
      <use xlink:href="#DejaVuSans-6f" x="1011.287109"/>
      <use xlink:href="#DejaVuSans-6e" x="1072.46875"/>
      <use xlink:href="#DejaVuSans-74" x="1135.847656"/>
      <use xlink:href="#DejaVuSans-68" x="1175.056641"/>
      <use xlink:href="#DejaVuSans-6c" x="1238.435547"/>
      <use xlink:href="#DejaVuSans-79" x="1266.21875"/>
      <use xlink:href="#DejaVuSans-20" x="1325.398438"/>
      <use xlink:href="#DejaVuSans-6d" x="1357.185547"/>
      <use xlink:href="#DejaVuSans-61" x="1454.597656"/>
      <use xlink:href="#DejaVuSans-78" x="1515.876953"/>
      <use xlink:href="#DejaVuSans-69" x="1575.056641"/>
      <use xlink:href="#DejaVuSans-6d" x="1602.839844"/>
      <use xlink:href="#DejaVuSans-75" x="1700.251953"/>
      <use xlink:href="#DejaVuSans-6d" x="1763.630859"/>
      <use xlink:href="#DejaVuSans-20" x="1861.042969"/>
      <use xlink:href="#DejaVuSans-74" x="1892.830078"/>
      <use xlink:href="#DejaVuSans-65" x="1932.039062"/>
      <use xlink:href="#DejaVuSans-6d" x="1993.5625"/>
      <use xlink:href="#DejaVuSans-70" x="2090.974609"/>
      <use xlink:href="#DejaVuSans-65" x="2154.451172"/>
      <use xlink:href="#DejaVuSans-72" x="2215.974609"/>
      <use xlink:href="#DejaVuSans-61" x="2257.087891"/>
      <use xlink:href="#DejaVuSans-74" x="2318.367188"/>
      <use xlink:href="#DejaVuSans-75" x="2357.576172"/>
      <use xlink:href="#DejaVuSans-72" x="2420.955078"/>
      <use xlink:href="#DejaVuSans-65" x="2459.818359"/>
     </g>
    </g>
   </g>
   <g id="line2d_21">
    <path d="M 73.832727 213.202596 
L 76.560917 164.179362 
L 79.289106 122.184678 
L 82.017296 118.716236 
L 84.745485 74.674031 
L 87.473675 157.508579 
L 90.201864 120.866339 
L 92.930053 75.02727 
L 95.658243 110.585649 
L 98.386432 186.032629 
L 101.114622 222.221357 
L 103.842811 235.132852 
L 106.571001 174.658333 
L 109.29919 167.134342 
L 112.02738 112.205676 
L 114.755569 57.143022 
L 117.483759 84.123174 
L 120.211948 104.434418 
L 122.940138 69.79737 
L 125.668327 105.935683 
L 128.396516 88.751824 
L 131.124706 211.465838 
L 133.852895 295.488 
L 136.581085 225.229544 
L 139.309274 223.917513 
L 142.037464 145.757292 
L 144.765653 171.2849 
L 147.493843 112.960876 
L 150.222032 79.177828 
L 152.950222 162.453925 
L 155.678411 166.643732 
L 158.4066 103.374701 
L 161.13479 98.800864 
L 163.862979 169.960254 
L 166.591169 221.673227 
L 169.319358 234.691303 
L 172.047548 197.738239 
L 174.775737 161.561692 
L 177.503927 154.064499 
L 180.232116 87.750182 
L 182.960306 105.494135 
L 185.688495 103.816249 
L 188.416684 151.92544 
L 191.144874 118.475668 
L 193.873063 128.491212 
L 196.601253 199.279092 
L 199.329442 244.055182 
L 202.057632 276.285197 
L 204.785821 184.354744 
L 207.514011 184.765841 
L 210.2422 156.713791 
L 212.97039 95.146668 
L 215.698579 101.431886 
L 218.426769 85.006272 
L 221.154958 83.303155 
L 223.883147 91.982742 
L 226.611337 102.455061 
L 229.339526 167.046032 
L 232.067716 239.670146 
L 234.795905 251.911705 
L 237.524095 179.586017 
L 240.252284 147.58439 
L 242.980474 83.946555 
L 245.708663 59.609605 
L 248.436853 118.122429 
L 251.165042 78.118111 
L 253.893231 106.691222 
L 256.621421 134.283114 
L 259.34961 58.604701 
L 262.0778 149.91394 
L 264.805989 220.576968 
L 267.534179 253.854519 
L 270.262368 142.584231 
L 272.990558 145.117807 
L 275.718747 74.762341 
L 278.446937 75.322651 
L 281.175126 102.226674 
L 283.903316 118.828907 
L 286.631505 133.674758 
L 289.359694 53.568 
L 292.087884 95.055313 
L 294.816073 146.488131 
L 297.544263 257.941129 
L 300.272452 202.988102 
L 303.000642 152.739852 
L 305.728831 137.352639 
L 308.457021 69.375446 
L 311.18521 152.243491 
L 313.9134 108.94126 
L 316.641589 78.383041 
L 319.369778 143.977562 
L 322.097968 148.059435 
L 324.826157 104.09945 
L 327.554347 132.605229 
L 330.282536 175.173575 
L 333.010726 176.053627 
L 335.738915 192.83248 
L 338.467105 144.204258 
L 341.195294 151.061967 
L 343.923484 143.838838 
L 346.651673 89.42176 
L 349.379862 87.214016 
L 352.108052 132.315068 
L 354.836241 81.385572 
L 357.564431 142.651224 
L 360.29262 158.744916 
L 363.02081 221.216453 
L 365.748999 236.015949 
L 368.477189 165.809696 
L 371.205378 136.80451 
L 373.933568 113.795251 
L 376.661757 138.722963 
L 379.389947 96.839779 
L 382.118136 74.674031 
L 384.846325 148.294928 
L 387.574515 69.728685 
L 390.302704 85.006272 
L 393.030894 214.46837 
L 395.759083 275.389918 
L 398.487273 231.335532 
" clip-path="url(#p5921f4e85a)" style="fill: none; stroke: #1f77b4; stroke-width: 1.5; stroke-linecap: square"/>
   </g>
   <g id="patch_7">
    <path d="M 57.6 307.584 
L 57.6 41.472 
" style="fill: none; stroke: #000000; stroke-width: 0.8; stroke-linejoin: miter; stroke-linecap: square"/>
   </g>
   <g id="patch_8">
    <path d="M 414.72 307.584 
L 414.72 41.472 
" style="fill: none; stroke: #000000; stroke-width: 0.8; stroke-linejoin: miter; stroke-linecap: square"/>
   </g>
   <g id="patch_9">
    <path d="M 57.6 307.584 
L 414.72 307.584 
" style="fill: none; stroke: #000000; stroke-width: 0.8; stroke-linejoin: miter; stroke-linecap: square"/>
   </g>
   <g id="patch_10">
    <path d="M 57.6 41.472 
L 414.72 41.472 
" style="fill: none; stroke: #000000; stroke-width: 0.8; stroke-linejoin: miter; stroke-linecap: square"/>
   </g>
  </g>
 </g>
 <defs>
  <clipPath id="p5921f4e85a">
   <rect x="57.6" y="41.472" width="357.12" height="266.112"/>
  </clipPath>
 </defs>
</svg>
