<?xml version="1.0" encoding="utf-8" standalone="no"?>
<!DOCTYPE svg PUBLIC "-//W3C//DTD SVG 1.1//EN"
  "http://www.w3.org/Graphics/SVG/1.1/DTD/svg11.dtd">
<svg xmlns:xlink="http://www.w3.org/1999/xlink" width="720pt" height="504pt" viewBox="0 0 720 504" xmlns="http://www.w3.org/2000/svg" version="1.1">
 <metadata>
  <rdf:RDF xmlns:dc="http://purl.org/dc/elements/1.1/" xmlns:cc="http://creativecommons.org/ns#" xmlns:rdf="http://www.w3.org/1999/02/22-rdf-syntax-ns#">
   <cc:Work>
    <dc:type rdf:resource="http://purl.org/dc/dcmitype/StillImage"/>
    <dc:date>2023-03-22T22:43:26.765786</dc:date>
    <dc:format>image/svg+xml</dc:format>
    <dc:creator>
     <cc:Agent>
      <dc:title>Matplotlib v3.6.3, https://matplotlib.org/</dc:title>
     </cc:Agent>
    </dc:creator>
   </cc:Work>
  </rdf:RDF>
 </metadata>
 <defs>
  <style type="text/css">*{stroke-linejoin: round; stroke-linecap: butt}</style>
 </defs>
 <g id="figure_1">
  <g id="patch_1">
   <path d="M 0 504 
L 720 504 
L 720 0 
L 0 0 
z
" style="fill: #ffffff"/>
  </g>
  <g id="axes_1">
   <g id="patch_2">
    <path d="M 72 218.4 
L 648 218.4 
L 648 50.4 
L 72 50.4 
z
" style="fill: #ffffff"/>
   </g>
   <g id="matplotlib.axis_1">
    <g id="xtick_1">
     <g id="line2d_1">
      <defs>
       <path id="m5c629e8ab3" d="M 0 0 
L 0 3.5 
" style="stroke: #000000; stroke-width: 0.8"/>
      </defs>
      <g>
       <use xlink:href="#m5c629e8ab3" x="98.181818" y="218.4" style="stroke: #000000; stroke-width: 0.8"/>
      </g>
     </g>
     <g id="text_1">
      <!-- 0 -->
      <g transform="translate(95.000568 232.998438) scale(0.1 -0.1)">
       <defs>
        <path id="DejaVuSans-30" d="M 2034 4250 
Q 1547 4250 1301 3770 
Q 1056 3291 1056 2328 
Q 1056 1369 1301 889 
Q 1547 409 2034 409 
Q 2525 409 2770 889 
Q 3016 1369 3016 2328 
Q 3016 3291 2770 3770 
Q 2525 4250 2034 4250 
z
M 2034 4750 
Q 2819 4750 3233 4129 
Q 3647 3509 3647 2328 
Q 3647 1150 3233 529 
Q 2819 -91 2034 -91 
Q 1250 -91 836 529 
Q 422 1150 422 2328 
Q 422 3509 836 4129 
Q 1250 4750 2034 4750 
z
" transform="scale(0.015625)"/>
       </defs>
       <use xlink:href="#DejaVuSans-30"/>
      </g>
     </g>
    </g>
    <g id="xtick_2">
     <g id="line2d_2">
      <g>
       <use xlink:href="#m5c629e8ab3" x="171.315389" y="218.4" style="stroke: #000000; stroke-width: 0.8"/>
      </g>
     </g>
     <g id="text_2">
      <!-- 25 -->
      <g transform="translate(164.952889 232.998438) scale(0.1 -0.1)">
       <defs>
        <path id="DejaVuSans-32" d="M 1228 531 
L 3431 531 
L 3431 0 
L 469 0 
L 469 531 
Q 828 903 1448 1529 
Q 2069 2156 2228 2338 
Q 2531 2678 2651 2914 
Q 2772 3150 2772 3378 
Q 2772 3750 2511 3984 
Q 2250 4219 1831 4219 
Q 1534 4219 1204 4116 
Q 875 4013 500 3803 
L 500 4441 
Q 881 4594 1212 4672 
Q 1544 4750 1819 4750 
Q 2544 4750 2975 4387 
Q 3406 4025 3406 3419 
Q 3406 3131 3298 2873 
Q 3191 2616 2906 2266 
Q 2828 2175 2409 1742 
Q 1991 1309 1228 531 
z
" transform="scale(0.015625)"/>
        <path id="DejaVuSans-35" d="M 691 4666 
L 3169 4666 
L 3169 4134 
L 1269 4134 
L 1269 2991 
Q 1406 3038 1543 3061 
Q 1681 3084 1819 3084 
Q 2600 3084 3056 2656 
Q 3513 2228 3513 1497 
Q 3513 744 3044 326 
Q 2575 -91 1722 -91 
Q 1428 -91 1123 -41 
Q 819 9 494 109 
L 494 744 
Q 775 591 1075 516 
Q 1375 441 1709 441 
Q 2250 441 2565 725 
Q 2881 1009 2881 1497 
Q 2881 1984 2565 2268 
Q 2250 2553 1709 2553 
Q 1456 2553 1204 2497 
Q 953 2441 691 2322 
L 691 4666 
z
" transform="scale(0.015625)"/>
       </defs>
       <use xlink:href="#DejaVuSans-32"/>
       <use xlink:href="#DejaVuSans-35" x="63.623047"/>
      </g>
     </g>
    </g>
    <g id="xtick_3">
     <g id="line2d_3">
      <g>
       <use xlink:href="#m5c629e8ab3" x="244.448959" y="218.4" style="stroke: #000000; stroke-width: 0.8"/>
      </g>
     </g>
     <g id="text_3">
      <!-- 50 -->
      <g transform="translate(238.086459 232.998438) scale(0.1 -0.1)">
       <use xlink:href="#DejaVuSans-35"/>
       <use xlink:href="#DejaVuSans-30" x="63.623047"/>
      </g>
     </g>
    </g>
    <g id="xtick_4">
     <g id="line2d_4">
      <g>
       <use xlink:href="#m5c629e8ab3" x="317.582529" y="218.4" style="stroke: #000000; stroke-width: 0.8"/>
      </g>
     </g>
     <g id="text_4">
      <!-- 75 -->
      <g transform="translate(311.220029 232.998438) scale(0.1 -0.1)">
       <defs>
        <path id="DejaVuSans-37" d="M 525 4666 
L 3525 4666 
L 3525 4397 
L 1831 0 
L 1172 0 
L 2766 4134 
L 525 4134 
L 525 4666 
z
" transform="scale(0.015625)"/>
       </defs>
       <use xlink:href="#DejaVuSans-37"/>
       <use xlink:href="#DejaVuSans-35" x="63.623047"/>
      </g>
     </g>
    </g>
    <g id="xtick_5">
     <g id="line2d_5">
      <g>
       <use xlink:href="#m5c629e8ab3" x="390.7161" y="218.4" style="stroke: #000000; stroke-width: 0.8"/>
      </g>
     </g>
     <g id="text_5">
      <!-- 100 -->
      <g transform="translate(381.17235 232.998438) scale(0.1 -0.1)">
       <defs>
        <path id="DejaVuSans-31" d="M 794 531 
L 1825 531 
L 1825 4091 
L 703 3866 
L 703 4441 
L 1819 4666 
L 2450 4666 
L 2450 531 
L 3481 531 
L 3481 0 
L 794 0 
L 794 531 
z
" transform="scale(0.015625)"/>
       </defs>
       <use xlink:href="#DejaVuSans-31"/>
       <use xlink:href="#DejaVuSans-30" x="63.623047"/>
       <use xlink:href="#DejaVuSans-30" x="127.246094"/>
      </g>
     </g>
    </g>
    <g id="xtick_6">
     <g id="line2d_6">
      <g>
       <use xlink:href="#m5c629e8ab3" x="463.84967" y="218.4" style="stroke: #000000; stroke-width: 0.8"/>
      </g>
     </g>
     <g id="text_6">
      <!-- 125 -->
      <g transform="translate(454.30592 232.998438) scale(0.1 -0.1)">
       <use xlink:href="#DejaVuSans-31"/>
       <use xlink:href="#DejaVuSans-32" x="63.623047"/>
       <use xlink:href="#DejaVuSans-35" x="127.246094"/>
      </g>
     </g>
    </g>
    <g id="xtick_7">
     <g id="line2d_7">
      <g>
       <use xlink:href="#m5c629e8ab3" x="536.98324" y="218.4" style="stroke: #000000; stroke-width: 0.8"/>
      </g>
     </g>
     <g id="text_7">
      <!-- 150 -->
      <g transform="translate(527.43949 232.998438) scale(0.1 -0.1)">
       <use xlink:href="#DejaVuSans-31"/>
       <use xlink:href="#DejaVuSans-35" x="63.623047"/>
       <use xlink:href="#DejaVuSans-30" x="127.246094"/>
      </g>
     </g>
    </g>
    <g id="xtick_8">
     <g id="line2d_8">
      <g>
       <use xlink:href="#m5c629e8ab3" x="610.116811" y="218.4" style="stroke: #000000; stroke-width: 0.8"/>
      </g>
     </g>
     <g id="text_8">
      <!-- 175 -->
      <g transform="translate(600.573061 232.998438) scale(0.1 -0.1)">
       <use xlink:href="#DejaVuSans-31"/>
       <use xlink:href="#DejaVuSans-37" x="63.623047"/>
       <use xlink:href="#DejaVuSans-35" x="127.246094"/>
      </g>
     </g>
    </g>
    <g id="text_9">
     <!-- Days since first observation -->
     <g transform="translate(290.425781 246.676563) scale(0.1 -0.1)">
      <defs>
       <path id="DejaVuSans-44" d="M 1259 4147 
L 1259 519 
L 2022 519 
Q 2988 519 3436 956 
Q 3884 1394 3884 2338 
Q 3884 3275 3436 3711 
Q 2988 4147 2022 4147 
L 1259 4147 
z
M 628 4666 
L 1925 4666 
Q 3281 4666 3915 4102 
Q 4550 3538 4550 2338 
Q 4550 1131 3912 565 
Q 3275 0 1925 0 
L 628 0 
L 628 4666 
z
" transform="scale(0.015625)"/>
       <path id="DejaVuSans-61" d="M 2194 1759 
Q 1497 1759 1228 1600 
Q 959 1441 959 1056 
Q 959 750 1161 570 
Q 1363 391 1709 391 
Q 2188 391 2477 730 
Q 2766 1069 2766 1631 
L 2766 1759 
L 2194 1759 
z
M 3341 1997 
L 3341 0 
L 2766 0 
L 2766 531 
Q 2569 213 2275 61 
Q 1981 -91 1556 -91 
Q 1019 -91 701 211 
Q 384 513 384 1019 
Q 384 1609 779 1909 
Q 1175 2209 1959 2209 
L 2766 2209 
L 2766 2266 
Q 2766 2663 2505 2880 
Q 2244 3097 1772 3097 
Q 1472 3097 1187 3025 
Q 903 2953 641 2809 
L 641 3341 
Q 956 3463 1253 3523 
Q 1550 3584 1831 3584 
Q 2591 3584 2966 3190 
Q 3341 2797 3341 1997 
z
" transform="scale(0.015625)"/>
       <path id="DejaVuSans-79" d="M 2059 -325 
Q 1816 -950 1584 -1140 
Q 1353 -1331 966 -1331 
L 506 -1331 
L 506 -850 
L 844 -850 
Q 1081 -850 1212 -737 
Q 1344 -625 1503 -206 
L 1606 56 
L 191 3500 
L 800 3500 
L 1894 763 
L 2988 3500 
L 3597 3500 
L 2059 -325 
z
" transform="scale(0.015625)"/>
       <path id="DejaVuSans-73" d="M 2834 3397 
L 2834 2853 
Q 2591 2978 2328 3040 
Q 2066 3103 1784 3103 
Q 1356 3103 1142 2972 
Q 928 2841 928 2578 
Q 928 2378 1081 2264 
Q 1234 2150 1697 2047 
L 1894 2003 
Q 2506 1872 2764 1633 
Q 3022 1394 3022 966 
Q 3022 478 2636 193 
Q 2250 -91 1575 -91 
Q 1294 -91 989 -36 
Q 684 19 347 128 
L 347 722 
Q 666 556 975 473 
Q 1284 391 1588 391 
Q 1994 391 2212 530 
Q 2431 669 2431 922 
Q 2431 1156 2273 1281 
Q 2116 1406 1581 1522 
L 1381 1569 
Q 847 1681 609 1914 
Q 372 2147 372 2553 
Q 372 3047 722 3315 
Q 1072 3584 1716 3584 
Q 2034 3584 2315 3537 
Q 2597 3491 2834 3397 
z
" transform="scale(0.015625)"/>
       <path id="DejaVuSans-20" transform="scale(0.015625)"/>
       <path id="DejaVuSans-69" d="M 603 3500 
L 1178 3500 
L 1178 0 
L 603 0 
L 603 3500 
z
M 603 4863 
L 1178 4863 
L 1178 4134 
L 603 4134 
L 603 4863 
z
" transform="scale(0.015625)"/>
       <path id="DejaVuSans-6e" d="M 3513 2113 
L 3513 0 
L 2938 0 
L 2938 2094 
Q 2938 2591 2744 2837 
Q 2550 3084 2163 3084 
Q 1697 3084 1428 2787 
Q 1159 2491 1159 1978 
L 1159 0 
L 581 0 
L 581 3500 
L 1159 3500 
L 1159 2956 
Q 1366 3272 1645 3428 
Q 1925 3584 2291 3584 
Q 2894 3584 3203 3211 
Q 3513 2838 3513 2113 
z
" transform="scale(0.015625)"/>
       <path id="DejaVuSans-63" d="M 3122 3366 
L 3122 2828 
Q 2878 2963 2633 3030 
Q 2388 3097 2138 3097 
Q 1578 3097 1268 2742 
Q 959 2388 959 1747 
Q 959 1106 1268 751 
Q 1578 397 2138 397 
Q 2388 397 2633 464 
Q 2878 531 3122 666 
L 3122 134 
Q 2881 22 2623 -34 
Q 2366 -91 2075 -91 
Q 1284 -91 818 406 
Q 353 903 353 1747 
Q 353 2603 823 3093 
Q 1294 3584 2113 3584 
Q 2378 3584 2631 3529 
Q 2884 3475 3122 3366 
z
" transform="scale(0.015625)"/>
       <path id="DejaVuSans-65" d="M 3597 1894 
L 3597 1613 
L 953 1613 
Q 991 1019 1311 708 
Q 1631 397 2203 397 
Q 2534 397 2845 478 
Q 3156 559 3463 722 
L 3463 178 
Q 3153 47 2828 -22 
Q 2503 -91 2169 -91 
Q 1331 -91 842 396 
Q 353 884 353 1716 
Q 353 2575 817 3079 
Q 1281 3584 2069 3584 
Q 2775 3584 3186 3129 
Q 3597 2675 3597 1894 
z
M 3022 2063 
Q 3016 2534 2758 2815 
Q 2500 3097 2075 3097 
Q 1594 3097 1305 2825 
Q 1016 2553 972 2059 
L 3022 2063 
z
" transform="scale(0.015625)"/>
       <path id="DejaVuSans-66" d="M 2375 4863 
L 2375 4384 
L 1825 4384 
Q 1516 4384 1395 4259 
Q 1275 4134 1275 3809 
L 1275 3500 
L 2222 3500 
L 2222 3053 
L 1275 3053 
L 1275 0 
L 697 0 
L 697 3053 
L 147 3053 
L 147 3500 
L 697 3500 
L 697 3744 
Q 697 4328 969 4595 
Q 1241 4863 1831 4863 
L 2375 4863 
z
" transform="scale(0.015625)"/>
       <path id="DejaVuSans-72" d="M 2631 2963 
Q 2534 3019 2420 3045 
Q 2306 3072 2169 3072 
Q 1681 3072 1420 2755 
Q 1159 2438 1159 1844 
L 1159 0 
L 581 0 
L 581 3500 
L 1159 3500 
L 1159 2956 
Q 1341 3275 1631 3429 
Q 1922 3584 2338 3584 
Q 2397 3584 2469 3576 
Q 2541 3569 2628 3553 
L 2631 2963 
z
" transform="scale(0.015625)"/>
       <path id="DejaVuSans-74" d="M 1172 4494 
L 1172 3500 
L 2356 3500 
L 2356 3053 
L 1172 3053 
L 1172 1153 
Q 1172 725 1289 603 
Q 1406 481 1766 481 
L 2356 481 
L 2356 0 
L 1766 0 
Q 1100 0 847 248 
Q 594 497 594 1153 
L 594 3053 
L 172 3053 
L 172 3500 
L 594 3500 
L 594 4494 
L 1172 4494 
z
" transform="scale(0.015625)"/>
       <path id="DejaVuSans-6f" d="M 1959 3097 
Q 1497 3097 1228 2736 
Q 959 2375 959 1747 
Q 959 1119 1226 758 
Q 1494 397 1959 397 
Q 2419 397 2687 759 
Q 2956 1122 2956 1747 
Q 2956 2369 2687 2733 
Q 2419 3097 1959 3097 
z
M 1959 3584 
Q 2709 3584 3137 3096 
Q 3566 2609 3566 1747 
Q 3566 888 3137 398 
Q 2709 -91 1959 -91 
Q 1206 -91 779 398 
Q 353 888 353 1747 
Q 353 2609 779 3096 
Q 1206 3584 1959 3584 
z
" transform="scale(0.015625)"/>
       <path id="DejaVuSans-62" d="M 3116 1747 
Q 3116 2381 2855 2742 
Q 2594 3103 2138 3103 
Q 1681 3103 1420 2742 
Q 1159 2381 1159 1747 
Q 1159 1113 1420 752 
Q 1681 391 2138 391 
Q 2594 391 2855 752 
Q 3116 1113 3116 1747 
z
M 1159 2969 
Q 1341 3281 1617 3432 
Q 1894 3584 2278 3584 
Q 2916 3584 3314 3078 
Q 3713 2572 3713 1747 
Q 3713 922 3314 415 
Q 2916 -91 2278 -91 
Q 1894 -91 1617 61 
Q 1341 213 1159 525 
L 1159 0 
L 581 0 
L 581 4863 
L 1159 4863 
L 1159 2969 
z
" transform="scale(0.015625)"/>
       <path id="DejaVuSans-76" d="M 191 3500 
L 800 3500 
L 1894 563 
L 2988 3500 
L 3597 3500 
L 2284 0 
L 1503 0 
L 191 3500 
z
" transform="scale(0.015625)"/>
      </defs>
      <use xlink:href="#DejaVuSans-44"/>
      <use xlink:href="#DejaVuSans-61" x="77.001953"/>
      <use xlink:href="#DejaVuSans-79" x="138.28125"/>
      <use xlink:href="#DejaVuSans-73" x="197.460938"/>
      <use xlink:href="#DejaVuSans-20" x="249.560547"/>
      <use xlink:href="#DejaVuSans-73" x="281.347656"/>
      <use xlink:href="#DejaVuSans-69" x="333.447266"/>
      <use xlink:href="#DejaVuSans-6e" x="361.230469"/>
      <use xlink:href="#DejaVuSans-63" x="424.609375"/>
      <use xlink:href="#DejaVuSans-65" x="479.589844"/>
      <use xlink:href="#DejaVuSans-20" x="541.113281"/>
      <use xlink:href="#DejaVuSans-66" x="572.900391"/>
      <use xlink:href="#DejaVuSans-69" x="608.105469"/>
      <use xlink:href="#DejaVuSans-72" x="635.888672"/>
      <use xlink:href="#DejaVuSans-73" x="677.001953"/>
      <use xlink:href="#DejaVuSans-74" x="729.101562"/>
      <use xlink:href="#DejaVuSans-20" x="768.310547"/>
      <use xlink:href="#DejaVuSans-6f" x="800.097656"/>
      <use xlink:href="#DejaVuSans-62" x="861.279297"/>
      <use xlink:href="#DejaVuSans-73" x="924.755859"/>
      <use xlink:href="#DejaVuSans-65" x="976.855469"/>
      <use xlink:href="#DejaVuSans-72" x="1038.378906"/>
      <use xlink:href="#DejaVuSans-76" x="1079.492188"/>
      <use xlink:href="#DejaVuSans-61" x="1138.671875"/>
      <use xlink:href="#DejaVuSans-74" x="1199.951172"/>
      <use xlink:href="#DejaVuSans-69" x="1239.160156"/>
      <use xlink:href="#DejaVuSans-6f" x="1266.943359"/>
      <use xlink:href="#DejaVuSans-6e" x="1328.125"/>
     </g>
    </g>
   </g>
   <g id="matplotlib.axis_2">
    <g id="ytick_1">
     <g id="line2d_9">
      <defs>
       <path id="me087be292b" d="M 0 0 
L -3.5 0 
" style="stroke: #000000; stroke-width: 0.8"/>
      </defs>
      <g>
       <use xlink:href="#me087be292b" x="72" y="194.687081" style="stroke: #000000; stroke-width: 0.8"/>
      </g>
     </g>
     <g id="text_10">
      <!-- 27.5 -->
      <g transform="translate(42.734375 198.4863) scale(0.1 -0.1)">
       <defs>
        <path id="DejaVuSans-2e" d="M 684 794 
L 1344 794 
L 1344 0 
L 684 0 
L 684 794 
z
" transform="scale(0.015625)"/>
       </defs>
       <use xlink:href="#DejaVuSans-32"/>
       <use xlink:href="#DejaVuSans-37" x="63.623047"/>
       <use xlink:href="#DejaVuSans-2e" x="127.246094"/>
       <use xlink:href="#DejaVuSans-35" x="159.033203"/>
      </g>
     </g>
    </g>
    <g id="ytick_2">
     <g id="line2d_10">
      <g>
       <use xlink:href="#me087be292b" x="72" y="169.567464" style="stroke: #000000; stroke-width: 0.8"/>
      </g>
     </g>
     <g id="text_11">
      <!-- 30.0 -->
      <g transform="translate(42.734375 173.366683) scale(0.1 -0.1)">
       <defs>
        <path id="DejaVuSans-33" d="M 2597 2516 
Q 3050 2419 3304 2112 
Q 3559 1806 3559 1356 
Q 3559 666 3084 287 
Q 2609 -91 1734 -91 
Q 1441 -91 1130 -33 
Q 819 25 488 141 
L 488 750 
Q 750 597 1062 519 
Q 1375 441 1716 441 
Q 2309 441 2620 675 
Q 2931 909 2931 1356 
Q 2931 1769 2642 2001 
Q 2353 2234 1838 2234 
L 1294 2234 
L 1294 2753 
L 1863 2753 
Q 2328 2753 2575 2939 
Q 2822 3125 2822 3475 
Q 2822 3834 2567 4026 
Q 2313 4219 1838 4219 
Q 1578 4219 1281 4162 
Q 984 4106 628 3988 
L 628 4550 
Q 988 4650 1302 4700 
Q 1616 4750 1894 4750 
Q 2613 4750 3031 4423 
Q 3450 4097 3450 3541 
Q 3450 3153 3228 2886 
Q 3006 2619 2597 2516 
z
" transform="scale(0.015625)"/>
       </defs>
       <use xlink:href="#DejaVuSans-33"/>
       <use xlink:href="#DejaVuSans-30" x="63.623047"/>
       <use xlink:href="#DejaVuSans-2e" x="127.246094"/>
       <use xlink:href="#DejaVuSans-30" x="159.033203"/>
      </g>
     </g>
    </g>
    <g id="ytick_3">
     <g id="line2d_11">
      <g>
       <use xlink:href="#me087be292b" x="72" y="144.447847" style="stroke: #000000; stroke-width: 0.8"/>
      </g>
     </g>
     <g id="text_12">
      <!-- 32.5 -->
      <g transform="translate(42.734375 148.247066) scale(0.1 -0.1)">
       <use xlink:href="#DejaVuSans-33"/>
       <use xlink:href="#DejaVuSans-32" x="63.623047"/>
       <use xlink:href="#DejaVuSans-2e" x="127.246094"/>
       <use xlink:href="#DejaVuSans-35" x="159.033203"/>
      </g>
     </g>
    </g>
    <g id="ytick_4">
     <g id="line2d_12">
      <g>
       <use xlink:href="#me087be292b" x="72" y="119.32823" style="stroke: #000000; stroke-width: 0.8"/>
      </g>
     </g>
     <g id="text_13">
      <!-- 35.0 -->
      <g transform="translate(42.734375 123.127448) scale(0.1 -0.1)">
       <use xlink:href="#DejaVuSans-33"/>
       <use xlink:href="#DejaVuSans-35" x="63.623047"/>
       <use xlink:href="#DejaVuSans-2e" x="127.246094"/>
       <use xlink:href="#DejaVuSans-30" x="159.033203"/>
      </g>
     </g>
    </g>
    <g id="ytick_5">
     <g id="line2d_13">
      <g>
       <use xlink:href="#me087be292b" x="72" y="94.208612" style="stroke: #000000; stroke-width: 0.8"/>
      </g>
     </g>
     <g id="text_14">
      <!-- 37.5 -->
      <g transform="translate(42.734375 98.007831) scale(0.1 -0.1)">
       <use xlink:href="#DejaVuSans-33"/>
       <use xlink:href="#DejaVuSans-37" x="63.623047"/>
       <use xlink:href="#DejaVuSans-2e" x="127.246094"/>
       <use xlink:href="#DejaVuSans-35" x="159.033203"/>
      </g>
     </g>
    </g>
    <g id="ytick_6">
     <g id="line2d_14">
      <g>
       <use xlink:href="#me087be292b" x="72" y="69.088995" style="stroke: #000000; stroke-width: 0.8"/>
      </g>
     </g>
     <g id="text_15">
      <!-- 40.0 -->
      <g transform="translate(42.734375 72.888214) scale(0.1 -0.1)">
       <defs>
        <path id="DejaVuSans-34" d="M 2419 4116 
L 825 1625 
L 2419 1625 
L 2419 4116 
z
M 2253 4666 
L 3047 4666 
L 3047 1625 
L 3713 1625 
L 3713 1100 
L 3047 1100 
L 3047 0 
L 2419 0 
L 2419 1100 
L 313 1100 
L 313 1709 
L 2253 4666 
z
" transform="scale(0.015625)"/>
       </defs>
       <use xlink:href="#DejaVuSans-34"/>
       <use xlink:href="#DejaVuSans-30" x="63.623047"/>
       <use xlink:href="#DejaVuSans-2e" x="127.246094"/>
       <use xlink:href="#DejaVuSans-30" x="159.033203"/>
      </g>
     </g>
    </g>
    <g id="text_16">
     <!-- Maximum daily temperature (degC) -->
     <g transform="translate(36.654687 224.022656) rotate(-90) scale(0.1 -0.1)">
      <defs>
       <path id="DejaVuSans-4d" d="M 628 4666 
L 1569 4666 
L 2759 1491 
L 3956 4666 
L 4897 4666 
L 4897 0 
L 4281 0 
L 4281 4097 
L 3078 897 
L 2444 897 
L 1241 4097 
L 1241 0 
L 628 0 
L 628 4666 
z
" transform="scale(0.015625)"/>
       <path id="DejaVuSans-78" d="M 3513 3500 
L 2247 1797 
L 3578 0 
L 2900 0 
L 1881 1375 
L 863 0 
L 184 0 
L 1544 1831 
L 300 3500 
L 978 3500 
L 1906 2253 
L 2834 3500 
L 3513 3500 
z
" transform="scale(0.015625)"/>
       <path id="DejaVuSans-6d" d="M 3328 2828 
Q 3544 3216 3844 3400 
Q 4144 3584 4550 3584 
Q 5097 3584 5394 3201 
Q 5691 2819 5691 2113 
L 5691 0 
L 5113 0 
L 5113 2094 
Q 5113 2597 4934 2840 
Q 4756 3084 4391 3084 
Q 3944 3084 3684 2787 
Q 3425 2491 3425 1978 
L 3425 0 
L 2847 0 
L 2847 2094 
Q 2847 2600 2669 2842 
Q 2491 3084 2119 3084 
Q 1678 3084 1418 2786 
Q 1159 2488 1159 1978 
L 1159 0 
L 581 0 
L 581 3500 
L 1159 3500 
L 1159 2956 
Q 1356 3278 1631 3431 
Q 1906 3584 2284 3584 
Q 2666 3584 2933 3390 
Q 3200 3197 3328 2828 
z
" transform="scale(0.015625)"/>
       <path id="DejaVuSans-75" d="M 544 1381 
L 544 3500 
L 1119 3500 
L 1119 1403 
Q 1119 906 1312 657 
Q 1506 409 1894 409 
Q 2359 409 2629 706 
Q 2900 1003 2900 1516 
L 2900 3500 
L 3475 3500 
L 3475 0 
L 2900 0 
L 2900 538 
Q 2691 219 2414 64 
Q 2138 -91 1772 -91 
Q 1169 -91 856 284 
Q 544 659 544 1381 
z
M 1991 3584 
L 1991 3584 
z
" transform="scale(0.015625)"/>
       <path id="DejaVuSans-64" d="M 2906 2969 
L 2906 4863 
L 3481 4863 
L 3481 0 
L 2906 0 
L 2906 525 
Q 2725 213 2448 61 
Q 2172 -91 1784 -91 
Q 1150 -91 751 415 
Q 353 922 353 1747 
Q 353 2572 751 3078 
Q 1150 3584 1784 3584 
Q 2172 3584 2448 3432 
Q 2725 3281 2906 2969 
z
M 947 1747 
Q 947 1113 1208 752 
Q 1469 391 1925 391 
Q 2381 391 2643 752 
Q 2906 1113 2906 1747 
Q 2906 2381 2643 2742 
Q 2381 3103 1925 3103 
Q 1469 3103 1208 2742 
Q 947 2381 947 1747 
z
" transform="scale(0.015625)"/>
       <path id="DejaVuSans-6c" d="M 603 4863 
L 1178 4863 
L 1178 0 
L 603 0 
L 603 4863 
z
" transform="scale(0.015625)"/>
       <path id="DejaVuSans-70" d="M 1159 525 
L 1159 -1331 
L 581 -1331 
L 581 3500 
L 1159 3500 
L 1159 2969 
Q 1341 3281 1617 3432 
Q 1894 3584 2278 3584 
Q 2916 3584 3314 3078 
Q 3713 2572 3713 1747 
Q 3713 922 3314 415 
Q 2916 -91 2278 -91 
Q 1894 -91 1617 61 
Q 1341 213 1159 525 
z
M 3116 1747 
Q 3116 2381 2855 2742 
Q 2594 3103 2138 3103 
Q 1681 3103 1420 2742 
Q 1159 2381 1159 1747 
Q 1159 1113 1420 752 
Q 1681 391 2138 391 
Q 2594 391 2855 752 
Q 3116 1113 3116 1747 
z
" transform="scale(0.015625)"/>
       <path id="DejaVuSans-28" d="M 1984 4856 
Q 1566 4138 1362 3434 
Q 1159 2731 1159 2009 
Q 1159 1288 1364 580 
Q 1569 -128 1984 -844 
L 1484 -844 
Q 1016 -109 783 600 
Q 550 1309 550 2009 
Q 550 2706 781 3412 
Q 1013 4119 1484 4856 
L 1984 4856 
z
" transform="scale(0.015625)"/>
       <path id="DejaVuSans-67" d="M 2906 1791 
Q 2906 2416 2648 2759 
Q 2391 3103 1925 3103 
Q 1463 3103 1205 2759 
Q 947 2416 947 1791 
Q 947 1169 1205 825 
Q 1463 481 1925 481 
Q 2391 481 2648 825 
Q 2906 1169 2906 1791 
z
M 3481 434 
Q 3481 -459 3084 -895 
Q 2688 -1331 1869 -1331 
Q 1566 -1331 1297 -1286 
Q 1028 -1241 775 -1147 
L 775 -588 
Q 1028 -725 1275 -790 
Q 1522 -856 1778 -856 
Q 2344 -856 2625 -561 
Q 2906 -266 2906 331 
L 2906 616 
Q 2728 306 2450 153 
Q 2172 0 1784 0 
Q 1141 0 747 490 
Q 353 981 353 1791 
Q 353 2603 747 3093 
Q 1141 3584 1784 3584 
Q 2172 3584 2450 3431 
Q 2728 3278 2906 2969 
L 2906 3500 
L 3481 3500 
L 3481 434 
z
" transform="scale(0.015625)"/>
       <path id="DejaVuSans-43" d="M 4122 4306 
L 4122 3641 
Q 3803 3938 3442 4084 
Q 3081 4231 2675 4231 
Q 1875 4231 1450 3742 
Q 1025 3253 1025 2328 
Q 1025 1406 1450 917 
Q 1875 428 2675 428 
Q 3081 428 3442 575 
Q 3803 722 4122 1019 
L 4122 359 
Q 3791 134 3420 21 
Q 3050 -91 2638 -91 
Q 1578 -91 968 557 
Q 359 1206 359 2328 
Q 359 3453 968 4101 
Q 1578 4750 2638 4750 
Q 3056 4750 3426 4639 
Q 3797 4528 4122 4306 
z
" transform="scale(0.015625)"/>
       <path id="DejaVuSans-29" d="M 513 4856 
L 1013 4856 
Q 1481 4119 1714 3412 
Q 1947 2706 1947 2009 
Q 1947 1309 1714 600 
Q 1481 -109 1013 -844 
L 513 -844 
Q 928 -128 1133 580 
Q 1338 1288 1338 2009 
Q 1338 2731 1133 3434 
Q 928 4138 513 4856 
z
" transform="scale(0.015625)"/>
      </defs>
      <use xlink:href="#DejaVuSans-4d"/>
      <use xlink:href="#DejaVuSans-61" x="86.279297"/>
      <use xlink:href="#DejaVuSans-78" x="147.558594"/>
      <use xlink:href="#DejaVuSans-69" x="206.738281"/>
      <use xlink:href="#DejaVuSans-6d" x="234.521484"/>
      <use xlink:href="#DejaVuSans-75" x="331.933594"/>
      <use xlink:href="#DejaVuSans-6d" x="395.3125"/>
      <use xlink:href="#DejaVuSans-20" x="492.724609"/>
      <use xlink:href="#DejaVuSans-64" x="524.511719"/>
      <use xlink:href="#DejaVuSans-61" x="587.988281"/>
      <use xlink:href="#DejaVuSans-69" x="649.267578"/>
      <use xlink:href="#DejaVuSans-6c" x="677.050781"/>
      <use xlink:href="#DejaVuSans-79" x="704.833984"/>
      <use xlink:href="#DejaVuSans-20" x="764.013672"/>
      <use xlink:href="#DejaVuSans-74" x="795.800781"/>
      <use xlink:href="#DejaVuSans-65" x="835.009766"/>
      <use xlink:href="#DejaVuSans-6d" x="896.533203"/>
      <use xlink:href="#DejaVuSans-70" x="993.945312"/>
      <use xlink:href="#DejaVuSans-65" x="1057.421875"/>
      <use xlink:href="#DejaVuSans-72" x="1118.945312"/>
      <use xlink:href="#DejaVuSans-61" x="1160.058594"/>
      <use xlink:href="#DejaVuSans-74" x="1221.337891"/>
      <use xlink:href="#DejaVuSans-75" x="1260.546875"/>
      <use xlink:href="#DejaVuSans-72" x="1323.925781"/>
      <use xlink:href="#DejaVuSans-65" x="1362.789062"/>
      <use xlink:href="#DejaVuSans-20" x="1424.3125"/>
      <use xlink:href="#DejaVuSans-28" x="1456.099609"/>
      <use xlink:href="#DejaVuSans-64" x="1495.113281"/>
      <use xlink:href="#DejaVuSans-65" x="1558.589844"/>
      <use xlink:href="#DejaVuSans-67" x="1620.113281"/>
      <use xlink:href="#DejaVuSans-43" x="1683.589844"/>
      <use xlink:href="#DejaVuSans-29" x="1753.414062"/>
     </g>
    </g>
   </g>
   <g id="line2d_15">
    <path d="M 98.181818 167.557895 
L 101.107161 166.55311 
L 104.032504 168.562679 
L 106.957847 171.577033 
L 109.883189 165.548325 
L 112.808532 174.591388 
L 115.733875 181.62488 
L 118.659218 172.581818 
L 121.584561 165.548325 
L 124.509904 174.591388 
L 127.435246 178.610526 
L 130.360589 198.70622 
L 133.285932 204.734928 
L 136.211275 176.600957 
L 139.136618 168.562679 
L 142.06196 163.538756 
L 144.987303 164.543541 
L 147.912646 182.629665 
L 150.837989 197.701435 
L 153.763332 187.653589 
L 156.688674 184.639234 
L 159.614017 170.572249 
L 162.53936 166.55311 
L 165.464703 168.562679 
L 168.390046 179.615311 
L 171.315389 161.529187 
L 174.240731 156.505263 
L 177.166074 159.519617 
L 180.091417 160.524402 
L 183.01676 156.505263 
L 185.942103 154.495694 
L 188.867445 173.586603 
L 191.792788 166.55311 
L 194.718131 168.562679 
L 197.643474 163.538756 
L 200.568817 155.500478 
L 203.494159 145.452632 
L 206.419502 138.419139 
L 209.344845 136.409569 
L 212.270188 131.385646 
L 215.195531 128.371292 
L 218.120874 135.404785 
L 221.046216 135.404785 
L 223.971559 160.524402 
L 226.896902 166.55311 
L 229.822245 168.562679 
L 232.747588 161.529187 
L 235.67293 148.466986 
L 238.598273 149.47177 
L 241.523616 138.419139 
L 244.448959 139.423923 
L 247.374302 151.48134 
L 250.299644 169.567464 
L 253.224987 147.462201 
L 256.15033 120.333014 
L 259.075673 104.256459 
L 262.001016 105.261244 
L 264.926359 110.285167 
L 267.851701 112.294737 
L 270.777044 125.356938 
L 273.702387 134.4 
L 276.62773 113.299522 
L 279.553073 95.213397 
L 282.478415 89.184689 
L 285.403758 100.237321 
L 288.329101 106.266029 
L 291.254444 104.256459 
L 294.179787 95.213397 
L 297.10513 105.261244 
L 300.030472 89.184689 
L 302.955815 95.213397 
L 305.881158 120.333014 
L 308.806501 125.356938 
L 311.731844 143.443062 
L 314.657186 125.356938 
L 317.582529 145.452632 
L 320.507872 79.136842 
L 323.433215 87.17512 
L 326.358558 91.194258 
L 329.2839 129.376077 
L 332.209243 122.342584 
L 335.134586 109.280383 
L 338.059929 95.213397 
L 340.985272 83.155981 
L 343.910615 64.065072 
L 349.7613 68.084211 
L 352.686643 76.122488 
L 355.611986 77.127273 
L 358.537329 93.203828 
L 361.462671 115.309091 
L 364.388014 111.289952 
L 367.313357 98.227751 
L 370.2387 95.213397 
L 373.164043 89.184689 
L 376.089385 92.199043 
L 379.014728 114.304306 
L 381.940071 106.266029 
L 384.865414 104.256459 
L 387.790757 91.194258 
L 390.7161 93.203828 
L 393.641442 89.184689 
L 396.566785 84.160766 
L 399.492128 77.127273 
L 402.417471 60.045933 
L 405.342814 58.036364 
L 408.268156 59.041148 
L 411.193499 79.136842 
L 414.118842 106.266029 
L 417.044185 101.242105 
L 419.969528 93.203828 
L 422.89487 109.280383 
L 425.820213 105.261244 
L 428.745556 100.237321 
L 431.670899 117.31866 
L 434.596242 180.620096 
L 437.521585 138.419139 
L 440.446927 127.366507 
L 443.37227 131.385646 
L 446.297613 119.32823 
L 449.222956 105.261244 
L 452.148299 105.261244 
L 455.073641 97.222967 
L 457.998984 79.136842 
L 460.924327 71.098565 
L 463.84967 103.251675 
L 466.775013 102.24689 
L 469.700356 93.203828 
L 472.625698 105.261244 
L 475.551041 164.543541 
L 478.476384 167.557895 
L 484.32707 115.309091 
L 487.252412 98.227751 
L 490.177755 89.184689 
L 493.103098 102.24689 
L 496.028441 79.136842 
L 498.953784 91.194258 
L 501.879126 119.32823 
L 504.804469 115.309091 
L 507.729812 110.285167 
L 510.655155 97.222967 
L 513.580498 94.208612 
L 516.505841 128.371292 
L 519.431183 112.294737 
L 522.356526 127.366507 
L 525.281869 191.672727 
L 528.207212 156.505263 
L 531.132555 160.524402 
L 534.057897 153.490909 
L 536.98324 152.486124 
L 539.908583 130.380861 
L 542.833926 142.438278 
L 545.759269 134.4 
L 548.684611 142.438278 
L 551.609954 142.438278 
L 554.535297 137.414354 
L 557.46064 144.447847 
L 560.385983 160.524402 
L 563.311326 141.433493 
L 566.236668 150.476555 
L 569.162011 149.47177 
L 572.087354 140.428708 
L 575.012697 138.419139 
L 577.93804 143.443062 
L 580.863382 137.414354 
L 583.788725 123.347368 
L 586.714068 125.356938 
L 589.639411 132.390431 
L 592.564754 117.31866 
L 595.490096 173.586603 
L 598.415439 137.414354 
L 601.340782 185.644019 
L 604.266125 210.763636 
L 607.191468 186.648804 
L 610.116811 142.438278 
L 613.042153 154.495694 
L 615.967496 135.404785 
L 618.892839 121.337799 
L 621.818182 121.337799 
L 621.818182 121.337799 
" clip-path="url(#pf23059c81f)" style="fill: none; stroke: #ff7f0e; stroke-width: 1.5; stroke-linecap: square"/>
   </g>
   <g id="line2d_16">
    <path d="M 98.181818 177.195283 
L 101.107161 172.617649 
L 104.032504 172.895154 
L 106.957847 174.711244 
L 109.883189 176.934048 
L 112.808532 169.718444 
L 115.733875 180.62675 
L 118.659218 183.927092 
L 121.584561 173.74856 
L 124.509904 169.682318 
L 127.435246 179.738713 
L 130.360589 180.45695 
L 133.285932 198.048808 
L 136.211275 199.022224 
L 139.136618 173.756284 
L 142.06196 171.737335 
L 144.987303 167.504034 
L 147.912646 169.884353 
L 150.837989 186.610578 
L 153.763332 196.213956 
L 156.688674 184.344212 
L 159.614017 185.586145 
L 162.53936 171.228013 
L 165.464703 171.651075 
L 168.390046 173.560765 
L 171.315389 183.787246 
L 174.240731 163.566292 
L 177.166074 163.14072 
L 180.091417 166.157021 
L 183.01676 165.763453 
L 185.942103 161.310716 
L 188.867445 159.983117 
L 191.792788 178.719052 
L 194.718131 167.047166 
L 197.643474 172.251985 
L 203.494159 158.939673 
L 206.419502 149.482311 
L 209.344845 142.795999 
L 212.270188 141.469377 
L 215.195531 135.574684 
L 218.120874 132.657081 
L 221.046216 139.870922 
L 223.971559 137.92961 
L 226.896902 158.709121 
L 229.822245 161.440366 
L 232.747588 163.471388 
L 235.67293 157.342061 
L 238.598273 146.979242 
L 241.523616 150.27692 
L 244.448959 138.631193 
L 247.374302 141.439403 
L 250.299644 152.721786 
L 253.224987 166.678762 
L 259.075673 123.141708 
L 262.001016 107.91317 
L 264.926359 110.754727 
L 267.851701 115.018461 
L 270.777044 115.398077 
L 273.702387 127.927567 
L 276.62773 134.319201 
L 279.553073 111.98357 
L 282.478415 97.425837 
L 285.403758 93.689746 
L 288.329101 105.550156 
L 291.254444 109.331131 
L 294.179787 105.454524 
L 297.10513 96.047815 
L 300.030472 108.04602 
L 302.955815 91.038457 
L 305.881158 98.497223 
L 308.806501 119.455829 
L 311.731844 123.138871 
L 314.657186 134.626297 
L 317.582529 120.925535 
L 320.507872 137.051519 
L 323.433215 97.300998 
L 326.358558 91.298331 
L 329.2839 97.33055 
L 332.209243 124.432722 
L 335.134586 120.362283 
L 338.059929 108.024862 
L 340.985272 96.229688 
L 343.910615 86.483226 
L 346.835957 74.225531 
L 349.7613 73.907166 
L 352.686643 76.170331 
L 355.611986 84.065478 
L 358.537329 83.675016 
L 361.462671 99.950716 
L 364.388014 116.999598 
L 367.313357 109.816267 
L 370.2387 97.526835 
L 373.164043 97.310312 
L 376.089385 90.997329 
L 379.014728 95.170453 
L 381.940071 114.614009 
L 384.865414 106.120461 
L 387.790757 103.553573 
L 390.7161 91.625396 
L 393.641442 94.993064 
L 396.566785 90.996179 
L 399.492128 86.324619 
L 402.417471 80.28458 
L 405.342814 69.657268 
L 408.268156 66.333718 
L 411.193499 67.106364 
L 414.118842 87.524792 
L 417.044185 108.741125 
L 419.969528 100.428608 
L 422.89487 92.751363 
L 425.820213 110.009985 
L 428.745556 103.967685 
L 431.670899 99.834194 
L 434.596242 120.949146 
L 437.521585 144.437 
L 440.446927 128.016491 
L 443.37227 124.778607 
L 446.297613 128.497718 
L 449.222956 118.706794 
L 452.148299 105.962198 
L 455.073641 106.988126 
L 457.998984 99.168564 
L 460.924327 85.598352 
L 463.84967 83.690003 
L 466.775013 105.417153 
L 469.700356 103.132984 
L 472.625698 93.573953 
L 475.551041 112.266749 
L 478.476384 145.993177 
L 481.401727 155.455292 
L 484.32707 134.107469 
L 490.177755 102.90063 
L 493.103098 100.080959 
L 496.028441 105.839122 
L 498.953784 90.5859 
L 501.879126 102.067769 
L 504.804469 120.419202 
L 507.729812 117.298568 
L 510.655155 112.934257 
L 513.580498 100.758893 
L 516.505841 104.889739 
L 519.431183 128.266438 
L 522.356526 112.660661 
L 525.281869 139.596751 
L 528.207212 152.154317 
L 531.132555 144.73758 
L 534.057897 149.03903 
L 536.98324 145.893099 
L 539.908583 145.040957 
L 542.833926 134.263317 
L 545.759269 141.011569 
L 548.684611 136.311799 
L 551.609954 141.99131 
L 554.535297 143.063156 
L 557.46064 142.795079 
L 560.385983 146.816188 
L 563.311326 162.041142 
L 566.236668 146.448991 
L 569.162011 151.415344 
L 572.087354 149.83776 
L 575.012697 142.265021 
L 577.93804 140.512174 
L 580.863382 143.865469 
L 583.788725 139.152781 
L 586.714068 128.387942 
L 589.639411 129.208922 
L 592.564754 135.800253 
L 595.490096 121.177014 
L 598.415439 157.768323 
L 601.340782 141.60353 
L 604.266125 188.520249 
L 607.191468 168.126122 
L 610.116811 170.1444 
L 613.042153 148.135681 
L 615.967496 153.788227 
L 618.892839 141.151702 
L 621.818182 130.03818 
L 621.818182 130.03818 
" clip-path="url(#pf23059c81f)" style="fill: none; stroke: #1f77b4; stroke-width: 1.5; stroke-linecap: square"/>
   </g>
   <g id="line2d_17">
    <path d="M 98.181818 167.557895 
L 101.107161 167.557895 
L 104.032504 166.55311 
L 106.957847 168.562679 
L 109.883189 171.577033 
L 112.808532 165.548325 
L 115.733875 174.591388 
L 118.659218 181.62488 
L 121.584561 172.581818 
L 124.509904 165.548325 
L 127.435246 174.591388 
L 130.360589 178.610526 
L 133.285932 198.70622 
L 136.211275 204.734928 
L 139.136618 176.600957 
L 142.06196 168.562679 
L 144.987303 163.538756 
L 147.912646 164.543541 
L 150.837989 182.629665 
L 153.763332 197.701435 
L 156.688674 187.653589 
L 159.614017 184.639234 
L 162.53936 170.572249 
L 165.464703 166.55311 
L 168.390046 168.562679 
L 171.315389 179.615311 
L 174.240731 161.529187 
L 177.166074 156.505263 
L 180.091417 159.519617 
L 183.01676 160.524402 
L 185.942103 156.505263 
L 188.867445 154.495694 
L 191.792788 173.586603 
L 194.718131 166.55311 
L 197.643474 168.562679 
L 200.568817 163.538756 
L 203.494159 155.500478 
L 206.419502 145.452632 
L 209.344845 138.419139 
L 212.270188 136.409569 
L 215.195531 131.385646 
L 218.120874 128.371292 
L 221.046216 135.404785 
L 223.971559 135.404785 
L 226.896902 160.524402 
L 229.822245 166.55311 
L 232.747588 168.562679 
L 235.67293 161.529187 
L 238.598273 148.466986 
L 241.523616 149.47177 
L 244.448959 138.419139 
L 247.374302 139.423923 
L 250.299644 151.48134 
L 253.224987 169.567464 
L 256.15033 147.462201 
L 259.075673 120.333014 
L 262.001016 104.256459 
L 264.926359 105.261244 
L 267.851701 110.285167 
L 270.777044 112.294737 
L 273.702387 125.356938 
L 276.62773 134.4 
L 279.553073 113.299522 
L 282.478415 95.213397 
L 285.403758 89.184689 
L 288.329101 100.237321 
L 291.254444 106.266029 
L 294.179787 104.256459 
L 297.10513 95.213397 
L 300.030472 105.261244 
L 302.955815 89.184689 
L 305.881158 95.213397 
L 308.806501 120.333014 
L 311.731844 125.356938 
L 314.657186 143.443062 
L 317.582529 125.356938 
L 320.507872 145.452632 
L 323.433215 79.136842 
L 326.358558 87.17512 
L 329.2839 91.194258 
L 332.209243 129.376077 
L 335.134586 122.342584 
L 338.059929 109.280383 
L 340.985272 95.213397 
L 343.910615 83.155981 
L 346.835957 64.065072 
L 352.686643 68.084211 
L 355.611986 76.122488 
L 358.537329 77.127273 
L 361.462671 93.203828 
L 364.388014 115.309091 
L 367.313357 111.289952 
L 370.2387 98.227751 
L 373.164043 95.213397 
L 376.089385 89.184689 
L 379.014728 92.199043 
L 381.940071 114.304306 
L 384.865414 106.266029 
L 387.790757 104.256459 
L 390.7161 91.194258 
L 393.641442 93.203828 
L 396.566785 89.184689 
L 399.492128 84.160766 
L 402.417471 77.127273 
L 405.342814 60.045933 
L 408.268156 58.036364 
L 411.193499 59.041148 
L 414.118842 79.136842 
L 417.044185 106.266029 
L 419.969528 101.242105 
L 422.89487 93.203828 
L 425.820213 109.280383 
L 428.745556 105.261244 
L 431.670899 100.237321 
L 434.596242 117.31866 
L 437.521585 180.620096 
L 440.446927 138.419139 
L 443.37227 127.366507 
L 446.297613 131.385646 
L 449.222956 119.32823 
L 452.148299 105.261244 
L 455.073641 105.261244 
L 457.998984 97.222967 
L 460.924327 79.136842 
L 463.84967 71.098565 
L 466.775013 103.251675 
L 469.700356 102.24689 
L 472.625698 93.203828 
L 475.551041 105.261244 
L 478.476384 164.543541 
L 481.401727 167.557895 
L 487.252412 115.309091 
L 490.177755 98.227751 
L 493.103098 89.184689 
L 496.028441 102.24689 
L 498.953784 79.136842 
L 501.879126 91.194258 
L 504.804469 119.32823 
L 507.729812 115.309091 
L 510.655155 110.285167 
L 513.580498 97.222967 
L 516.505841 94.208612 
L 519.431183 128.371292 
L 522.356526 112.294737 
L 525.281869 127.366507 
L 528.207212 191.672727 
L 531.132555 156.505263 
L 534.057897 160.524402 
L 536.98324 153.490909 
L 539.908583 152.486124 
L 542.833926 130.380861 
L 545.759269 142.438278 
L 548.684611 134.4 
L 551.609954 142.438278 
L 554.535297 142.438278 
L 557.46064 137.414354 
L 560.385983 144.447847 
L 563.311326 160.524402 
L 566.236668 141.433493 
L 569.162011 150.476555 
L 572.087354 149.47177 
L 575.012697 140.428708 
L 577.93804 138.419139 
L 580.863382 143.443062 
L 583.788725 137.414354 
L 586.714068 123.347368 
L 589.639411 125.356938 
L 592.564754 132.390431 
L 595.490096 117.31866 
L 598.415439 173.586603 
L 601.340782 137.414354 
L 604.266125 185.644019 
L 607.191468 210.763636 
L 610.116811 186.648804 
L 613.042153 142.438278 
L 615.967496 154.495694 
L 618.892839 135.404785 
L 621.818182 121.337799 
L 621.818182 121.337799 
" clip-path="url(#pf23059c81f)" style="fill: none; stroke: #2ca02c; stroke-width: 1.5; stroke-linecap: square"/>
   </g>
   <g id="patch_3">
    <path d="M 72 218.4 
L 72 50.4 
" style="fill: none; stroke: #000000; stroke-width: 0.8; stroke-linejoin: miter; stroke-linecap: square"/>
   </g>
   <g id="patch_4">
    <path d="M 648 218.4 
L 648 50.4 
" style="fill: none; stroke: #000000; stroke-width: 0.8; stroke-linejoin: miter; stroke-linecap: square"/>
   </g>
   <g id="patch_5">
    <path d="M 72 218.4 
L 648 218.4 
" style="fill: none; stroke: #000000; stroke-width: 0.8; stroke-linejoin: miter; stroke-linecap: square"/>
   </g>
   <g id="patch_6">
    <path d="M 72 50.4 
L 648 50.4 
" style="fill: none; stroke: #000000; stroke-width: 0.8; stroke-linejoin: miter; stroke-linecap: square"/>
   </g>
   <g id="legend_1">
    <g id="patch_7">
     <path d="M 560.885937 102.434375 
L 641 102.434375 
Q 643 102.434375 643 100.434375 
L 643 57.4 
Q 643 55.4 641 55.4 
L 560.885937 55.4 
Q 558.885937 55.4 558.885937 57.4 
L 558.885937 100.434375 
Q 558.885937 102.434375 560.885937 102.434375 
z
" style="fill: #ffffff; opacity: 0.8; stroke: #cccccc; stroke-linejoin: miter"/>
    </g>
    <g id="line2d_18">
     <path d="M 562.885937 63.498437 
L 572.885937 63.498437 
L 582.885937 63.498437 
" style="fill: none; stroke: #ff7f0e; stroke-width: 1.5; stroke-linecap: square"/>
    </g>
    <g id="text_17">
     <!-- Observed -->
     <g transform="translate(590.885937 66.998437) scale(0.1 -0.1)">
      <defs>
       <path id="DejaVuSans-4f" d="M 2522 4238 
Q 1834 4238 1429 3725 
Q 1025 3213 1025 2328 
Q 1025 1447 1429 934 
Q 1834 422 2522 422 
Q 3209 422 3611 934 
Q 4013 1447 4013 2328 
Q 4013 3213 3611 3725 
Q 3209 4238 2522 4238 
z
M 2522 4750 
Q 3503 4750 4090 4092 
Q 4678 3434 4678 2328 
Q 4678 1225 4090 567 
Q 3503 -91 2522 -91 
Q 1538 -91 948 565 
Q 359 1222 359 2328 
Q 359 3434 948 4092 
Q 1538 4750 2522 4750 
z
" transform="scale(0.015625)"/>
      </defs>
      <use xlink:href="#DejaVuSans-4f"/>
      <use xlink:href="#DejaVuSans-62" x="78.710938"/>
      <use xlink:href="#DejaVuSans-73" x="142.1875"/>
      <use xlink:href="#DejaVuSans-65" x="194.287109"/>
      <use xlink:href="#DejaVuSans-72" x="255.810547"/>
      <use xlink:href="#DejaVuSans-76" x="296.923828"/>
      <use xlink:href="#DejaVuSans-65" x="356.103516"/>
      <use xlink:href="#DejaVuSans-64" x="417.626953"/>
     </g>
    </g>
    <g id="line2d_19">
     <path d="M 562.885937 78.176562 
L 572.885937 78.176562 
L 582.885937 78.176562 
" style="fill: none; stroke: #1f77b4; stroke-width: 1.5; stroke-linecap: square"/>
    </g>
    <g id="text_18">
     <!-- Predicted -->
     <g transform="translate(590.885937 81.676562) scale(0.1 -0.1)">
      <defs>
       <path id="DejaVuSans-50" d="M 1259 4147 
L 1259 2394 
L 2053 2394 
Q 2494 2394 2734 2622 
Q 2975 2850 2975 3272 
Q 2975 3691 2734 3919 
Q 2494 4147 2053 4147 
L 1259 4147 
z
M 628 4666 
L 2053 4666 
Q 2838 4666 3239 4311 
Q 3641 3956 3641 3272 
Q 3641 2581 3239 2228 
Q 2838 1875 2053 1875 
L 1259 1875 
L 1259 0 
L 628 0 
L 628 4666 
z
" transform="scale(0.015625)"/>
      </defs>
      <use xlink:href="#DejaVuSans-50"/>
      <use xlink:href="#DejaVuSans-72" x="58.552734"/>
      <use xlink:href="#DejaVuSans-65" x="97.416016"/>
      <use xlink:href="#DejaVuSans-64" x="158.939453"/>
      <use xlink:href="#DejaVuSans-69" x="222.416016"/>
      <use xlink:href="#DejaVuSans-63" x="250.199219"/>
      <use xlink:href="#DejaVuSans-74" x="305.179688"/>
      <use xlink:href="#DejaVuSans-65" x="344.388672"/>
      <use xlink:href="#DejaVuSans-64" x="405.912109"/>
     </g>
    </g>
    <g id="line2d_20">
     <path d="M 562.885937 92.854687 
L 572.885937 92.854687 
L 582.885937 92.854687 
" style="fill: none; stroke: #2ca02c; stroke-width: 1.5; stroke-linecap: square"/>
    </g>
    <g id="text_19">
     <!-- Shifted -->
     <g transform="translate(590.885937 96.354687) scale(0.1 -0.1)">
      <defs>
       <path id="DejaVuSans-53" d="M 3425 4513 
L 3425 3897 
Q 3066 4069 2747 4153 
Q 2428 4238 2131 4238 
Q 1616 4238 1336 4038 
Q 1056 3838 1056 3469 
Q 1056 3159 1242 3001 
Q 1428 2844 1947 2747 
L 2328 2669 
Q 3034 2534 3370 2195 
Q 3706 1856 3706 1288 
Q 3706 609 3251 259 
Q 2797 -91 1919 -91 
Q 1588 -91 1214 -16 
Q 841 59 441 206 
L 441 856 
Q 825 641 1194 531 
Q 1563 422 1919 422 
Q 2459 422 2753 634 
Q 3047 847 3047 1241 
Q 3047 1584 2836 1778 
Q 2625 1972 2144 2069 
L 1759 2144 
Q 1053 2284 737 2584 
Q 422 2884 422 3419 
Q 422 4038 858 4394 
Q 1294 4750 2059 4750 
Q 2388 4750 2728 4690 
Q 3069 4631 3425 4513 
z
" transform="scale(0.015625)"/>
       <path id="DejaVuSans-68" d="M 3513 2113 
L 3513 0 
L 2938 0 
L 2938 2094 
Q 2938 2591 2744 2837 
Q 2550 3084 2163 3084 
Q 1697 3084 1428 2787 
Q 1159 2491 1159 1978 
L 1159 0 
L 581 0 
L 581 4863 
L 1159 4863 
L 1159 2956 
Q 1366 3272 1645 3428 
Q 1925 3584 2291 3584 
Q 2894 3584 3203 3211 
Q 3513 2838 3513 2113 
z
" transform="scale(0.015625)"/>
      </defs>
      <use xlink:href="#DejaVuSans-53"/>
      <use xlink:href="#DejaVuSans-68" x="63.476562"/>
      <use xlink:href="#DejaVuSans-69" x="126.855469"/>
      <use xlink:href="#DejaVuSans-66" x="154.638672"/>
      <use xlink:href="#DejaVuSans-74" x="188.09375"/>
      <use xlink:href="#DejaVuSans-65" x="227.302734"/>
      <use xlink:href="#DejaVuSans-64" x="288.826172"/>
     </g>
    </g>
   </g>
  </g>
  <g id="axes_2">
   <g id="patch_8">
    <path d="M 72 453.6 
L 648 453.6 
L 648 285.6 
L 72 285.6 
z
" style="fill: #ffffff"/>
   </g>
   <g id="matplotlib.axis_3">
    <g id="xtick_9">
     <g id="line2d_21">
      <g>
       <use xlink:href="#m5c629e8ab3" x="98.181818" y="453.6" style="stroke: #000000; stroke-width: 0.8"/>
      </g>
     </g>
     <g id="text_20">
      <!-- 0 -->
      <g transform="translate(95.000568 468.198438) scale(0.1 -0.1)">
       <use xlink:href="#DejaVuSans-30"/>
      </g>
     </g>
    </g>
    <g id="xtick_10">
     <g id="line2d_22">
      <g>
       <use xlink:href="#m5c629e8ab3" x="171.315389" y="453.6" style="stroke: #000000; stroke-width: 0.8"/>
      </g>
     </g>
     <g id="text_21">
      <!-- 25 -->
      <g transform="translate(164.952889 468.198438) scale(0.1 -0.1)">
       <use xlink:href="#DejaVuSans-32"/>
       <use xlink:href="#DejaVuSans-35" x="63.623047"/>
      </g>
     </g>
    </g>
    <g id="xtick_11">
     <g id="line2d_23">
      <g>
       <use xlink:href="#m5c629e8ab3" x="244.448959" y="453.6" style="stroke: #000000; stroke-width: 0.8"/>
      </g>
     </g>
     <g id="text_22">
      <!-- 50 -->
      <g transform="translate(238.086459 468.198438) scale(0.1 -0.1)">
       <use xlink:href="#DejaVuSans-35"/>
       <use xlink:href="#DejaVuSans-30" x="63.623047"/>
      </g>
     </g>
    </g>
    <g id="xtick_12">
     <g id="line2d_24">
      <g>
       <use xlink:href="#m5c629e8ab3" x="317.582529" y="453.6" style="stroke: #000000; stroke-width: 0.8"/>
      </g>
     </g>
     <g id="text_23">
      <!-- 75 -->
      <g transform="translate(311.220029 468.198438) scale(0.1 -0.1)">
       <use xlink:href="#DejaVuSans-37"/>
       <use xlink:href="#DejaVuSans-35" x="63.623047"/>
      </g>
     </g>
    </g>
    <g id="xtick_13">
     <g id="line2d_25">
      <g>
       <use xlink:href="#m5c629e8ab3" x="390.7161" y="453.6" style="stroke: #000000; stroke-width: 0.8"/>
      </g>
     </g>
     <g id="text_24">
      <!-- 100 -->
      <g transform="translate(381.17235 468.198438) scale(0.1 -0.1)">
       <use xlink:href="#DejaVuSans-31"/>
       <use xlink:href="#DejaVuSans-30" x="63.623047"/>
       <use xlink:href="#DejaVuSans-30" x="127.246094"/>
      </g>
     </g>
    </g>
    <g id="xtick_14">
     <g id="line2d_26">
      <g>
       <use xlink:href="#m5c629e8ab3" x="463.84967" y="453.6" style="stroke: #000000; stroke-width: 0.8"/>
      </g>
     </g>
     <g id="text_25">
      <!-- 125 -->
      <g transform="translate(454.30592 468.198438) scale(0.1 -0.1)">
       <use xlink:href="#DejaVuSans-31"/>
       <use xlink:href="#DejaVuSans-32" x="63.623047"/>
       <use xlink:href="#DejaVuSans-35" x="127.246094"/>
      </g>
     </g>
    </g>
    <g id="xtick_15">
     <g id="line2d_27">
      <g>
       <use xlink:href="#m5c629e8ab3" x="536.98324" y="453.6" style="stroke: #000000; stroke-width: 0.8"/>
      </g>
     </g>
     <g id="text_26">
      <!-- 150 -->
      <g transform="translate(527.43949 468.198438) scale(0.1 -0.1)">
       <use xlink:href="#DejaVuSans-31"/>
       <use xlink:href="#DejaVuSans-35" x="63.623047"/>
       <use xlink:href="#DejaVuSans-30" x="127.246094"/>
      </g>
     </g>
    </g>
    <g id="xtick_16">
     <g id="line2d_28">
      <g>
       <use xlink:href="#m5c629e8ab3" x="610.116811" y="453.6" style="stroke: #000000; stroke-width: 0.8"/>
      </g>
     </g>
     <g id="text_27">
      <!-- 175 -->
      <g transform="translate(600.573061 468.198438) scale(0.1 -0.1)">
       <use xlink:href="#DejaVuSans-31"/>
       <use xlink:href="#DejaVuSans-37" x="63.623047"/>
       <use xlink:href="#DejaVuSans-35" x="127.246094"/>
      </g>
     </g>
    </g>
    <g id="text_28">
     <!-- Days since first observation -->
     <g transform="translate(290.425781 481.876563) scale(0.1 -0.1)">
      <use xlink:href="#DejaVuSans-44"/>
      <use xlink:href="#DejaVuSans-61" x="77.001953"/>
      <use xlink:href="#DejaVuSans-79" x="138.28125"/>
      <use xlink:href="#DejaVuSans-73" x="197.460938"/>
      <use xlink:href="#DejaVuSans-20" x="249.560547"/>
      <use xlink:href="#DejaVuSans-73" x="281.347656"/>
      <use xlink:href="#DejaVuSans-69" x="333.447266"/>
      <use xlink:href="#DejaVuSans-6e" x="361.230469"/>
      <use xlink:href="#DejaVuSans-63" x="424.609375"/>
      <use xlink:href="#DejaVuSans-65" x="479.589844"/>
      <use xlink:href="#DejaVuSans-20" x="541.113281"/>
      <use xlink:href="#DejaVuSans-66" x="572.900391"/>
      <use xlink:href="#DejaVuSans-69" x="608.105469"/>
      <use xlink:href="#DejaVuSans-72" x="635.888672"/>
      <use xlink:href="#DejaVuSans-73" x="677.001953"/>
      <use xlink:href="#DejaVuSans-74" x="729.101562"/>
      <use xlink:href="#DejaVuSans-20" x="768.310547"/>
      <use xlink:href="#DejaVuSans-6f" x="800.097656"/>
      <use xlink:href="#DejaVuSans-62" x="861.279297"/>
      <use xlink:href="#DejaVuSans-73" x="924.755859"/>
      <use xlink:href="#DejaVuSans-65" x="976.855469"/>
      <use xlink:href="#DejaVuSans-72" x="1038.378906"/>
      <use xlink:href="#DejaVuSans-76" x="1079.492188"/>
      <use xlink:href="#DejaVuSans-61" x="1138.671875"/>
      <use xlink:href="#DejaVuSans-74" x="1199.951172"/>
      <use xlink:href="#DejaVuSans-69" x="1239.160156"/>
      <use xlink:href="#DejaVuSans-6f" x="1266.943359"/>
      <use xlink:href="#DejaVuSans-6e" x="1328.125"/>
     </g>
    </g>
   </g>
   <g id="matplotlib.axis_4">
    <g id="ytick_7">
     <g id="line2d_29">
      <g>
       <use xlink:href="#me087be292b" x="72" y="444.187683" style="stroke: #000000; stroke-width: 0.8"/>
      </g>
     </g>
     <g id="text_29">
      <!-- 0 -->
      <g transform="translate(58.6375 447.986902) scale(0.1 -0.1)">
       <use xlink:href="#DejaVuSans-30"/>
      </g>
     </g>
    </g>
    <g id="ytick_8">
     <g id="line2d_30">
      <g>
       <use xlink:href="#me087be292b" x="72" y="419.319261" style="stroke: #000000; stroke-width: 0.8"/>
      </g>
     </g>
     <g id="text_30">
      <!-- 20 -->
      <g transform="translate(52.275 423.11848) scale(0.1 -0.1)">
       <use xlink:href="#DejaVuSans-32"/>
       <use xlink:href="#DejaVuSans-30" x="63.623047"/>
      </g>
     </g>
    </g>
    <g id="ytick_9">
     <g id="line2d_31">
      <g>
       <use xlink:href="#me087be292b" x="72" y="394.45084" style="stroke: #000000; stroke-width: 0.8"/>
      </g>
     </g>
     <g id="text_31">
      <!-- 40 -->
      <g transform="translate(52.275 398.250059) scale(0.1 -0.1)">
       <use xlink:href="#DejaVuSans-34"/>
       <use xlink:href="#DejaVuSans-30" x="63.623047"/>
      </g>
     </g>
    </g>
    <g id="ytick_10">
     <g id="line2d_32">
      <g>
       <use xlink:href="#me087be292b" x="72" y="369.582418" style="stroke: #000000; stroke-width: 0.8"/>
      </g>
     </g>
     <g id="text_32">
      <!-- 60 -->
      <g transform="translate(52.275 373.381637) scale(0.1 -0.1)">
       <defs>
        <path id="DejaVuSans-36" d="M 2113 2584 
Q 1688 2584 1439 2293 
Q 1191 2003 1191 1497 
Q 1191 994 1439 701 
Q 1688 409 2113 409 
Q 2538 409 2786 701 
Q 3034 994 3034 1497 
Q 3034 2003 2786 2293 
Q 2538 2584 2113 2584 
z
M 3366 4563 
L 3366 3988 
Q 3128 4100 2886 4159 
Q 2644 4219 2406 4219 
Q 1781 4219 1451 3797 
Q 1122 3375 1075 2522 
Q 1259 2794 1537 2939 
Q 1816 3084 2150 3084 
Q 2853 3084 3261 2657 
Q 3669 2231 3669 1497 
Q 3669 778 3244 343 
Q 2819 -91 2113 -91 
Q 1303 -91 875 529 
Q 447 1150 447 2328 
Q 447 3434 972 4092 
Q 1497 4750 2381 4750 
Q 2619 4750 2861 4703 
Q 3103 4656 3366 4563 
z
" transform="scale(0.015625)"/>
       </defs>
       <use xlink:href="#DejaVuSans-36"/>
       <use xlink:href="#DejaVuSans-30" x="63.623047"/>
      </g>
     </g>
    </g>
    <g id="ytick_11">
     <g id="line2d_33">
      <g>
       <use xlink:href="#me087be292b" x="72" y="344.713996" style="stroke: #000000; stroke-width: 0.8"/>
      </g>
     </g>
     <g id="text_33">
      <!-- 80 -->
      <g transform="translate(52.275 348.513215) scale(0.1 -0.1)">
       <defs>
        <path id="DejaVuSans-38" d="M 2034 2216 
Q 1584 2216 1326 1975 
Q 1069 1734 1069 1313 
Q 1069 891 1326 650 
Q 1584 409 2034 409 
Q 2484 409 2743 651 
Q 3003 894 3003 1313 
Q 3003 1734 2745 1975 
Q 2488 2216 2034 2216 
z
M 1403 2484 
Q 997 2584 770 2862 
Q 544 3141 544 3541 
Q 544 4100 942 4425 
Q 1341 4750 2034 4750 
Q 2731 4750 3128 4425 
Q 3525 4100 3525 3541 
Q 3525 3141 3298 2862 
Q 3072 2584 2669 2484 
Q 3125 2378 3379 2068 
Q 3634 1759 3634 1313 
Q 3634 634 3220 271 
Q 2806 -91 2034 -91 
Q 1263 -91 848 271 
Q 434 634 434 1313 
Q 434 1759 690 2068 
Q 947 2378 1403 2484 
z
M 1172 3481 
Q 1172 3119 1398 2916 
Q 1625 2713 2034 2713 
Q 2441 2713 2670 2916 
Q 2900 3119 2900 3481 
Q 2900 3844 2670 4047 
Q 2441 4250 2034 4250 
Q 1625 4250 1398 4047 
Q 1172 3844 1172 3481 
z
" transform="scale(0.015625)"/>
       </defs>
       <use xlink:href="#DejaVuSans-38"/>
       <use xlink:href="#DejaVuSans-30" x="63.623047"/>
      </g>
     </g>
    </g>
    <g id="ytick_12">
     <g id="line2d_34">
      <g>
       <use xlink:href="#me087be292b" x="72" y="319.845575" style="stroke: #000000; stroke-width: 0.8"/>
      </g>
     </g>
     <g id="text_34">
      <!-- 100 -->
      <g transform="translate(45.9125 323.644794) scale(0.1 -0.1)">
       <use xlink:href="#DejaVuSans-31"/>
       <use xlink:href="#DejaVuSans-30" x="63.623047"/>
       <use xlink:href="#DejaVuSans-30" x="127.246094"/>
      </g>
     </g>
    </g>
    <g id="ytick_13">
     <g id="line2d_35">
      <g>
       <use xlink:href="#me087be292b" x="72" y="294.977153" style="stroke: #000000; stroke-width: 0.8"/>
      </g>
     </g>
     <g id="text_35">
      <!-- 120 -->
      <g transform="translate(45.9125 298.776372) scale(0.1 -0.1)">
       <use xlink:href="#DejaVuSans-31"/>
       <use xlink:href="#DejaVuSans-32" x="63.623047"/>
       <use xlink:href="#DejaVuSans-30" x="127.246094"/>
      </g>
     </g>
    </g>
    <g id="text_36">
     <!-- Precipitation (mm) -->
     <g transform="translate(39.832812 416.08125) rotate(-90) scale(0.1 -0.1)">
      <use xlink:href="#DejaVuSans-50"/>
      <use xlink:href="#DejaVuSans-72" x="58.552734"/>
      <use xlink:href="#DejaVuSans-65" x="97.416016"/>
      <use xlink:href="#DejaVuSans-63" x="158.939453"/>
      <use xlink:href="#DejaVuSans-69" x="213.919922"/>
      <use xlink:href="#DejaVuSans-70" x="241.703125"/>
      <use xlink:href="#DejaVuSans-69" x="305.179688"/>
      <use xlink:href="#DejaVuSans-74" x="332.962891"/>
      <use xlink:href="#DejaVuSans-61" x="372.171875"/>
      <use xlink:href="#DejaVuSans-74" x="433.451172"/>
      <use xlink:href="#DejaVuSans-69" x="472.660156"/>
      <use xlink:href="#DejaVuSans-6f" x="500.443359"/>
      <use xlink:href="#DejaVuSans-6e" x="561.625"/>
      <use xlink:href="#DejaVuSans-20" x="625.003906"/>
      <use xlink:href="#DejaVuSans-28" x="656.791016"/>
      <use xlink:href="#DejaVuSans-6d" x="695.804688"/>
      <use xlink:href="#DejaVuSans-6d" x="793.216797"/>
      <use xlink:href="#DejaVuSans-29" x="890.628906"/>
     </g>
    </g>
   </g>
   <g id="line2d_36">
    <path d="M 98.181818 444.187683 
L 323.433215 444.187683 
L 326.358558 440.706104 
L 329.2839 441.949525 
L 332.209243 444.187683 
L 367.313357 444.187683 
L 370.2387 443.690315 
L 373.164043 444.187683 
L 376.089385 444.187683 
L 379.014728 442.695578 
L 381.940071 441.452157 
L 384.865414 444.187683 
L 399.492128 444.187683 
L 402.417471 443.690315 
L 405.342814 444.187683 
L 414.118842 444.187683 
L 417.044185 443.938999 
L 419.969528 444.187683 
L 428.745556 444.187683 
L 431.670899 408.874524 
L 434.596242 443.938999 
L 437.521585 444.187683 
L 457.998984 444.187683 
L 460.924327 430.012683 
L 463.84967 443.192946 
L 466.775013 444.187683 
L 469.700356 444.187683 
L 472.625698 429.017946 
L 475.551041 418.07584 
L 478.476384 403.403472 
L 481.401727 444.187683 
L 487.252412 444.187683 
L 490.177755 399.424524 
L 493.103098 443.938999 
L 496.028441 444.187683 
L 498.953784 430.510051 
L 501.879126 442.944262 
L 504.804469 444.187683 
L 510.655155 444.187683 
L 513.580498 436.229788 
L 516.505841 443.192946 
L 519.431183 443.938999 
L 522.356526 342.227154 
L 525.281869 440.45742 
L 528.207212 431.256104 
L 531.132555 421.308735 
L 534.057897 422.054788 
L 536.98324 444.187683 
L 548.684611 444.187683 
L 551.609954 421.806104 
L 554.535297 441.949525 
L 557.46064 404.398208 
L 560.385983 375.053471 
L 563.311326 432.996893 
L 566.236668 444.187683 
L 589.639411 444.187683 
L 592.564754 443.690315 
L 595.490096 444.187683 
L 598.415439 427.028472 
L 601.340782 293.236364 
L 604.266125 439.960051 
L 607.191468 418.07584 
L 610.116811 443.938999 
L 613.042153 444.187683 
L 621.818182 444.187683 
L 621.818182 444.187683 
" clip-path="url(#pe5c3ec00cb)" style="fill: none; stroke: #ff7f0e; stroke-width: 1.5; stroke-linecap: square"/>
   </g>
   <g id="line2d_37">
    <path d="M 98.181818 442.762415 
L 109.883189 442.926318 
L 127.435246 443.166375 
L 130.360589 443.143378 
L 133.285932 443.394621 
L 136.211275 443.482421 
L 139.136618 443.292583 
L 142.06196 443.38447 
L 150.837989 443.075726 
L 153.763332 443.222444 
L 156.688674 443.155047 
L 159.614017 443.257543 
L 171.315389 443.065268 
L 174.240731 443.107611 
L 177.166074 443.392943 
L 183.01676 443.237112 
L 188.867445 443.4315 
L 194.718131 443.22031 
L 197.643474 443.324153 
L 200.568817 443.262369 
L 203.494159 443.42132 
L 206.419502 443.812979 
L 218.120874 443.780158 
L 221.046216 443.49664 
L 223.971559 443.381597 
L 229.822245 442.880613 
L 232.747588 442.922739 
L 238.598273 443.395249 
L 244.448959 443.638361 
L 247.374302 443.399302 
L 256.15033 443.363355 
L 259.075673 444.030296 
L 262.001016 444.211393 
L 270.777044 442.790941 
L 273.702387 441.898545 
L 276.62773 441.868835 
L 279.553073 442.755704 
L 282.478415 442.962457 
L 285.403758 442.97646 
L 288.329101 441.820752 
L 294.179787 441.952274 
L 297.10513 442.238336 
L 300.030472 441.135693 
L 302.955815 442.814284 
L 305.881158 441.654621 
L 308.806501 441.048529 
L 311.731844 442.156982 
L 314.657186 442.12122 
L 317.582529 443.353299 
L 320.507872 442.670502 
L 323.433215 445.963636 
L 326.358558 444.415326 
L 329.2839 442.442206 
L 332.209243 441.450381 
L 335.134586 442.530525 
L 340.985272 443.136393 
L 343.910615 443.471477 
L 346.835957 444.2644 
L 352.686643 442.556166 
L 355.611986 441.228974 
L 358.537329 441.289832 
L 361.462671 439.813916 
L 364.388014 440.056387 
L 367.313357 441.953053 
L 370.2387 442.884224 
L 373.164043 442.810314 
L 376.089385 443.584441 
L 379.014728 443.243347 
L 381.940071 442.15471 
L 384.865414 442.990723 
L 387.790757 443.306056 
L 390.7161 444.155157 
L 393.641442 443.732007 
L 396.566785 444.048159 
L 402.417471 443.910532 
L 405.342814 444.237236 
L 408.268156 443.693807 
L 411.193499 442.964494 
L 414.118842 440.682507 
L 417.044185 440.346627 
L 419.969528 441.959165 
L 422.89487 442.441456 
L 425.820213 441.700097 
L 428.745556 443.349983 
L 431.670899 443.719995 
L 434.596242 440.335923 
L 437.521585 441.06515 
L 440.446927 442.647516 
L 443.37227 442.919854 
L 446.297613 442.659042 
L 449.222956 443.124837 
L 452.148299 443.348641 
L 455.073641 442.926601 
L 457.998984 443.20081 
L 460.924327 443.715476 
L 463.84967 440.885799 
L 466.775013 439.419741 
L 469.700356 440.517978 
L 472.625698 440.955807 
L 475.551041 437.353433 
L 478.476384 437.947306 
L 481.401727 437.976822 
L 484.32707 439.744761 
L 490.177755 441.462172 
L 493.103098 435.687421 
L 496.028441 438.199547 
L 498.953784 439.936057 
L 501.879126 435.574936 
L 504.804469 435.979423 
L 507.729812 437.779936 
L 510.655155 438.678155 
L 513.580498 439.948878 
L 516.505841 436.69391 
L 519.431183 437.535664 
L 522.356526 440.388905 
L 525.281869 432.786261 
L 528.207212 438.274895 
L 531.132555 438.345294 
L 534.057897 436.195419 
L 536.98324 431.759859 
L 539.908583 433.591351 
L 542.833926 435.291544 
L 545.759269 436.323895 
L 551.609954 437.902458 
L 554.535297 426.675011 
L 557.46064 431.750293 
L 560.385983 415.103965 
L 563.311326 413.217164 
L 566.236668 430.66215 
L 569.162011 435.266407 
L 572.087354 437.747078 
L 575.012697 439.249413 
L 577.93804 439.720889 
L 580.863382 439.764116 
L 586.714068 440.504605 
L 589.639411 439.890215 
L 595.490096 439.669278 
L 598.415439 440.074538 
L 601.340782 436.012585 
L 604.266125 417.53399 
L 607.191468 430.959434 
L 610.116811 426.499192 
L 613.042153 429.455731 
L 615.967496 429.791079 
L 618.892839 432.037444 
L 621.818182 434.832623 
L 621.818182 434.832623 
" clip-path="url(#pe5c3ec00cb)" style="fill: none; stroke: #1f77b4; stroke-width: 1.5; stroke-linecap: square"/>
   </g>
   <g id="line2d_38">
    <path d="M 98.181818 444.187683 
L 326.358558 444.187683 
L 329.2839 440.706104 
L 332.209243 441.949525 
L 335.134586 444.187683 
L 370.2387 444.187683 
L 373.164043 443.690315 
L 376.089385 444.187683 
L 379.014728 444.187683 
L 381.940071 442.695578 
L 384.865414 441.452157 
L 387.790757 444.187683 
L 402.417471 444.187683 
L 405.342814 443.690315 
L 408.268156 444.187683 
L 417.044185 444.187683 
L 419.969528 443.938999 
L 422.89487 444.187683 
L 431.670899 444.187683 
L 434.596242 408.874524 
L 437.521585 443.938999 
L 440.446927 444.187683 
L 460.924327 444.187683 
L 463.84967 430.012683 
L 466.775013 443.192946 
L 469.700356 444.187683 
L 472.625698 444.187683 
L 475.551041 429.017946 
L 478.476384 418.07584 
L 481.401727 403.403472 
L 484.32707 444.187683 
L 490.177755 444.187683 
L 493.103098 399.424524 
L 496.028441 443.938999 
L 498.953784 444.187683 
L 501.879126 430.510051 
L 504.804469 442.944262 
L 507.729812 444.187683 
L 513.580498 444.187683 
L 516.505841 436.229788 
L 519.431183 443.192946 
L 522.356526 443.938999 
L 525.281869 342.227154 
L 528.207212 440.45742 
L 531.132555 431.256104 
L 534.057897 421.308735 
L 536.98324 422.054788 
L 539.908583 444.187683 
L 551.609954 444.187683 
L 554.535297 421.806104 
L 557.46064 441.949525 
L 560.385983 404.398208 
L 563.311326 375.053471 
L 566.236668 432.996893 
L 569.162011 444.187683 
L 592.564754 444.187683 
L 595.490096 443.690315 
L 598.415439 444.187683 
L 601.340782 427.028472 
L 604.266125 293.236364 
L 607.191468 439.960051 
L 610.116811 418.07584 
L 613.042153 443.938999 
L 615.967496 444.187683 
L 621.818182 444.187683 
L 621.818182 444.187683 
" clip-path="url(#pe5c3ec00cb)" style="fill: none; stroke: #2ca02c; stroke-width: 1.5; stroke-linecap: square"/>
   </g>
   <g id="patch_9">
    <path d="M 72 453.6 
L 72 285.6 
" style="fill: none; stroke: #000000; stroke-width: 0.8; stroke-linejoin: miter; stroke-linecap: square"/>
   </g>
   <g id="patch_10">
    <path d="M 648 453.6 
L 648 285.6 
" style="fill: none; stroke: #000000; stroke-width: 0.8; stroke-linejoin: miter; stroke-linecap: square"/>
   </g>
   <g id="patch_11">
    <path d="M 72 453.6 
L 648 453.6 
" style="fill: none; stroke: #000000; stroke-width: 0.8; stroke-linejoin: miter; stroke-linecap: square"/>
   </g>
   <g id="patch_12">
    <path d="M 72 285.6 
L 648 285.6 
" style="fill: none; stroke: #000000; stroke-width: 0.8; stroke-linejoin: miter; stroke-linecap: square"/>
   </g>
   <g id="legend_2">
    <g id="patch_13">
     <path d="M 79 337.634375 
L 159.114062 337.634375 
Q 161.114062 337.634375 161.114062 335.634375 
L 161.114062 292.6 
Q 161.114062 290.6 159.114062 290.6 
L 79 290.6 
Q 77 290.6 77 292.6 
L 77 335.634375 
Q 77 337.634375 79 337.634375 
z
" style="fill: #ffffff; opacity: 0.8; stroke: #cccccc; stroke-linejoin: miter"/>
    </g>
    <g id="line2d_39">
     <path d="M 81 298.698438 
L 91 298.698438 
L 101 298.698438 
" style="fill: none; stroke: #ff7f0e; stroke-width: 1.5; stroke-linecap: square"/>
    </g>
    <g id="text_37">
     <!-- Observed -->
     <g transform="translate(109 302.198438) scale(0.1 -0.1)">
      <use xlink:href="#DejaVuSans-4f"/>
      <use xlink:href="#DejaVuSans-62" x="78.710938"/>
      <use xlink:href="#DejaVuSans-73" x="142.1875"/>
      <use xlink:href="#DejaVuSans-65" x="194.287109"/>
      <use xlink:href="#DejaVuSans-72" x="255.810547"/>
      <use xlink:href="#DejaVuSans-76" x="296.923828"/>
      <use xlink:href="#DejaVuSans-65" x="356.103516"/>
      <use xlink:href="#DejaVuSans-64" x="417.626953"/>
     </g>
    </g>
    <g id="line2d_40">
     <path d="M 81 313.376563 
L 91 313.376563 
L 101 313.376563 
" style="fill: none; stroke: #1f77b4; stroke-width: 1.5; stroke-linecap: square"/>
    </g>
    <g id="text_38">
     <!-- Predicted -->
     <g transform="translate(109 316.876563) scale(0.1 -0.1)">
      <use xlink:href="#DejaVuSans-50"/>
      <use xlink:href="#DejaVuSans-72" x="58.552734"/>
      <use xlink:href="#DejaVuSans-65" x="97.416016"/>
      <use xlink:href="#DejaVuSans-64" x="158.939453"/>
      <use xlink:href="#DejaVuSans-69" x="222.416016"/>
      <use xlink:href="#DejaVuSans-63" x="250.199219"/>
      <use xlink:href="#DejaVuSans-74" x="305.179688"/>
      <use xlink:href="#DejaVuSans-65" x="344.388672"/>
      <use xlink:href="#DejaVuSans-64" x="405.912109"/>
     </g>
    </g>
    <g id="line2d_41">
     <path d="M 81 328.054688 
L 91 328.054688 
L 101 328.054688 
" style="fill: none; stroke: #2ca02c; stroke-width: 1.5; stroke-linecap: square"/>
    </g>
    <g id="text_39">
     <!-- Shifted -->
     <g transform="translate(109 331.554688) scale(0.1 -0.1)">
      <use xlink:href="#DejaVuSans-53"/>
      <use xlink:href="#DejaVuSans-68" x="63.476562"/>
      <use xlink:href="#DejaVuSans-69" x="126.855469"/>
      <use xlink:href="#DejaVuSans-66" x="154.638672"/>
      <use xlink:href="#DejaVuSans-74" x="188.09375"/>
      <use xlink:href="#DejaVuSans-65" x="227.302734"/>
      <use xlink:href="#DejaVuSans-64" x="288.826172"/>
     </g>
    </g>
   </g>
  </g>
  <g id="text_40">
   <!-- Observed, Predicted and Shifted values for the first 6 months of data -->
   <g transform="translate(152.608125 19.198125) scale(0.12 -0.12)">
    <defs>
     <path id="DejaVuSans-2c" d="M 750 794 
L 1409 794 
L 1409 256 
L 897 -744 
L 494 -744 
L 750 256 
L 750 794 
z
" transform="scale(0.015625)"/>
    </defs>
    <use xlink:href="#DejaVuSans-4f"/>
    <use xlink:href="#DejaVuSans-62" x="78.710938"/>
    <use xlink:href="#DejaVuSans-73" x="142.1875"/>
    <use xlink:href="#DejaVuSans-65" x="194.287109"/>
    <use xlink:href="#DejaVuSans-72" x="255.810547"/>
    <use xlink:href="#DejaVuSans-76" x="296.923828"/>
    <use xlink:href="#DejaVuSans-65" x="356.103516"/>
    <use xlink:href="#DejaVuSans-64" x="417.626953"/>
    <use xlink:href="#DejaVuSans-2c" x="481.103516"/>
    <use xlink:href="#DejaVuSans-20" x="512.890625"/>
    <use xlink:href="#DejaVuSans-50" x="544.677734"/>
    <use xlink:href="#DejaVuSans-72" x="603.230469"/>
    <use xlink:href="#DejaVuSans-65" x="642.09375"/>
    <use xlink:href="#DejaVuSans-64" x="703.617188"/>
    <use xlink:href="#DejaVuSans-69" x="767.09375"/>
    <use xlink:href="#DejaVuSans-63" x="794.876953"/>
    <use xlink:href="#DejaVuSans-74" x="849.857422"/>
    <use xlink:href="#DejaVuSans-65" x="889.066406"/>
    <use xlink:href="#DejaVuSans-64" x="950.589844"/>
    <use xlink:href="#DejaVuSans-20" x="1014.066406"/>
    <use xlink:href="#DejaVuSans-61" x="1045.853516"/>
    <use xlink:href="#DejaVuSans-6e" x="1107.132812"/>
    <use xlink:href="#DejaVuSans-64" x="1170.511719"/>
    <use xlink:href="#DejaVuSans-20" x="1233.988281"/>
    <use xlink:href="#DejaVuSans-53" x="1265.775391"/>
    <use xlink:href="#DejaVuSans-68" x="1329.251953"/>
    <use xlink:href="#DejaVuSans-69" x="1392.630859"/>
    <use xlink:href="#DejaVuSans-66" x="1420.414062"/>
    <use xlink:href="#DejaVuSans-74" x="1453.869141"/>
    <use xlink:href="#DejaVuSans-65" x="1493.078125"/>
    <use xlink:href="#DejaVuSans-64" x="1554.601562"/>
    <use xlink:href="#DejaVuSans-20" x="1618.078125"/>
    <use xlink:href="#DejaVuSans-76" x="1649.865234"/>
    <use xlink:href="#DejaVuSans-61" x="1709.044922"/>
    <use xlink:href="#DejaVuSans-6c" x="1770.324219"/>
    <use xlink:href="#DejaVuSans-75" x="1798.107422"/>
    <use xlink:href="#DejaVuSans-65" x="1861.486328"/>
    <use xlink:href="#DejaVuSans-73" x="1923.009766"/>
    <use xlink:href="#DejaVuSans-20" x="1975.109375"/>
    <use xlink:href="#DejaVuSans-66" x="2006.896484"/>
    <use xlink:href="#DejaVuSans-6f" x="2042.101562"/>
    <use xlink:href="#DejaVuSans-72" x="2103.283203"/>
    <use xlink:href="#DejaVuSans-20" x="2144.396484"/>
    <use xlink:href="#DejaVuSans-74" x="2176.183594"/>
    <use xlink:href="#DejaVuSans-68" x="2215.392578"/>
    <use xlink:href="#DejaVuSans-65" x="2278.771484"/>
    <use xlink:href="#DejaVuSans-20" x="2340.294922"/>
    <use xlink:href="#DejaVuSans-66" x="2372.082031"/>
    <use xlink:href="#DejaVuSans-69" x="2407.287109"/>
    <use xlink:href="#DejaVuSans-72" x="2435.070312"/>
    <use xlink:href="#DejaVuSans-73" x="2476.183594"/>
    <use xlink:href="#DejaVuSans-74" x="2528.283203"/>
    <use xlink:href="#DejaVuSans-20" x="2567.492188"/>
    <use xlink:href="#DejaVuSans-36" x="2599.279297"/>
    <use xlink:href="#DejaVuSans-20" x="2662.902344"/>
    <use xlink:href="#DejaVuSans-6d" x="2694.689453"/>
    <use xlink:href="#DejaVuSans-6f" x="2792.101562"/>
    <use xlink:href="#DejaVuSans-6e" x="2853.283203"/>
    <use xlink:href="#DejaVuSans-74" x="2916.662109"/>
    <use xlink:href="#DejaVuSans-68" x="2955.871094"/>
    <use xlink:href="#DejaVuSans-73" x="3019.25"/>
    <use xlink:href="#DejaVuSans-20" x="3071.349609"/>
    <use xlink:href="#DejaVuSans-6f" x="3103.136719"/>
    <use xlink:href="#DejaVuSans-66" x="3164.318359"/>
    <use xlink:href="#DejaVuSans-20" x="3199.523438"/>
    <use xlink:href="#DejaVuSans-64" x="3231.310547"/>
    <use xlink:href="#DejaVuSans-61" x="3294.787109"/>
    <use xlink:href="#DejaVuSans-74" x="3356.066406"/>
    <use xlink:href="#DejaVuSans-61" x="3395.275391"/>
   </g>
  </g>
 </g>
 <defs>
  <clipPath id="pf23059c81f">
   <rect x="72" y="50.4" width="576" height="168"/>
  </clipPath>
  <clipPath id="pe5c3ec00cb">
   <rect x="72" y="285.6" width="576" height="168"/>
  </clipPath>
 </defs>
</svg>
